<svg width="1392" height="798" viewBox="0 0 1392 798" fill="none" xmlns="http://www.w3.org/2000/svg">
<g clip-path="url(#clip0_60_308)">
<rect width="1392" height="798" fill="white"/>
<path d="M98.0659 47.8595C102.571 45.9769 104.875 46.8292 106.857 48.1312C107.055 48.2609 107.141 48.5063 107.076 48.7344L105.013 55.9266C104.91 56.2856 104.49 56.4375 104.175 56.2402C102.424 55.1441 100.391 54.4142 96.7715 55.675C96.3391 55.8256 95.8961 55.4287 96.0216 54.9857L98.0294 47.901C98.0347 47.8823 98.0481 47.8671 98.0659 47.8595Z" fill="black" fill-opacity="0.8956"/>
<path d="M108.225 49.8827C108.328 49.5235 108.748 49.3715 109.064 49.5683C110.805 50.6537 112.766 51.319 116.475 50.2358C116.899 50.1119 117.309 50.5023 117.188 50.93L115.279 57.665C115.233 57.826 115.115 57.9588 114.961 58.0211C110.604 59.7821 108.358 58.8746 106.409 57.5888C106.212 57.4587 106.125 57.2133 106.191 56.9852L108.225 49.8827Z" fill="black" fill-opacity="0.8956"/>
<path d="M107.791 46.1271C107.688 46.4867 107.267 46.6388 106.952 46.4403C105.877 45.7631 104.682 45.208 103.096 45.1961C102.084 45.188 100.916 45.4221 99.507 45.9298C99.0761 46.085 98.6358 45.6881 98.7618 45.2451L100.727 38.3347C100.773 38.1739 100.891 38.0414 101.045 37.9791C105.405 36.2173 107.653 37.1264 109.604 38.4104C109.801 38.5404 109.888 38.7858 109.823 39.014L107.791 46.1271Z" fill="black" fill-opacity="0.8956"/>
<path d="M119.978 41.1319C120.104 40.6888 119.661 40.2913 119.229 40.442C115.615 41.7012 113.557 40.9997 111.805 39.9119C111.489 39.7154 111.068 39.8681 110.965 40.228L108.93 47.3861C108.865 47.614 108.952 47.8588 109.15 47.9881C111.114 49.2749 113.525 50.2055 117.71 48.3788C117.857 48.3145 117.969 48.1852 118.013 48.0297L119.978 41.1319Z" fill="black" fill-opacity="0.8956"/>
<path d="M108.104 49.8486C108.231 49.4062 108.747 49.2231 109.13 49.4619C109.992 49.999 110.9 50.4284 112.049 50.5918C113.198 50.7553 114.597 50.6541 116.439 50.1162C116.954 49.966 117.457 50.4374 117.308 50.9639L115.399 57.6992C115.343 57.8968 115.198 58.0596 115.008 58.1367C112.816 59.0227 111.143 59.2421 109.767 59.0713C108.39 58.9004 107.323 58.3411 106.341 57.6934C106.097 57.5323 105.991 57.2299 106.07 56.9512L108.104 49.8486ZM98.0176 47.7441C100.283 46.7975 102.007 46.5336 103.42 46.6768C104.834 46.8201 105.926 47.3697 106.926 48.0264C107.171 48.1871 107.276 48.49 107.196 48.7686L105.134 55.9609C105.007 56.403 104.491 56.5853 104.108 56.3457C103.241 55.803 102.312 55.3559 101.156 55.1973C100.001 55.0387 98.6078 55.1676 96.8125 55.793C96.2905 55.9747 95.7466 55.4974 95.9014 54.9512L97.9092 47.8672L97.9248 47.8281C97.9449 47.7911 97.977 47.761 98.0166 47.7441H98.0176ZM110.845 40.1934C110.971 39.7503 111.487 39.5674 111.871 39.8057C112.738 40.344 113.673 40.7827 114.835 40.9336C115.997 41.0845 117.395 40.9489 119.188 40.3242C119.71 40.1422 120.254 40.6197 120.099 41.166L118.134 48.0645C118.079 48.255 117.942 48.4137 117.76 48.4932C115.652 49.4133 113.98 49.643 112.582 49.4746C111.184 49.3062 110.071 48.7416 109.081 48.0928C108.836 47.9324 108.73 47.63 108.81 47.3516L110.845 40.1934ZM100.999 37.8633C103.192 36.9769 104.866 36.7579 106.243 36.9287C107.621 37.0996 108.689 37.6589 109.672 38.3057C109.916 38.4667 110.023 38.7698 109.943 39.0488L107.911 46.1611C107.785 46.6037 107.269 46.7871 106.886 46.5459C105.821 45.8752 104.649 45.3329 103.095 45.3213C102.103 45.3134 100.95 45.5433 99.5498 46.0479C99.0271 46.2362 98.4866 45.7558 98.6416 45.2109L100.607 38.3008C100.664 38.1034 100.809 37.9402 100.999 37.8633Z" stroke="black" stroke-opacity="0.8956" stroke-width="0.25"/>
<path d="M140.672 45.4062H137.461V55H135.555V45.4062H132.352V43.7969H140.672V45.4062ZM144.215 55.1953C142.934 55.1953 141.918 54.8125 141.168 54.0469C140.418 53.276 140.043 52.2474 140.043 50.9609C140.048 49.6016 140.436 48.5365 141.207 47.7656C141.983 46.9948 143.038 46.6094 144.371 46.6094C145.658 46.6042 146.663 46.9818 147.387 47.7422C148.111 48.5026 148.473 49.5312 148.473 50.8281C148.473 52.1615 148.09 53.224 147.324 54.0156C146.559 54.8021 145.522 55.1953 144.215 55.1953ZM144.301 53.7188C145.046 53.7188 145.611 53.4766 145.996 52.9922C146.387 52.5026 146.582 51.7969 146.582 50.875C146.582 49.9688 146.387 49.2786 145.996 48.8047C145.606 48.3255 145.038 48.0859 144.293 48.0859C143.564 48.0859 142.988 48.3385 142.567 48.8438C142.15 49.3438 141.942 50.0391 141.942 50.9297C141.942 51.8203 142.147 52.5078 142.559 52.9922C142.975 53.4766 143.556 53.7188 144.301 53.7188ZM153.961 55.1953C152.68 55.1953 151.664 54.8125 150.914 54.0469C150.164 53.276 149.789 52.2474 149.789 50.9609C149.795 49.6016 150.183 48.5365 150.953 47.7656C151.729 46.9948 152.784 46.6094 154.118 46.6094C155.404 46.6042 156.409 46.9818 157.133 47.7422C157.857 48.5026 158.219 49.5312 158.219 50.8281C158.219 52.1615 157.836 53.224 157.071 54.0156C156.305 54.8021 155.269 55.1953 153.961 55.1953ZM154.047 53.7188C154.792 53.7188 155.357 53.4766 155.743 52.9922C156.133 52.5026 156.328 51.7969 156.328 50.875C156.328 49.9688 156.133 49.2786 155.743 48.8047C155.352 48.3255 154.784 48.0859 154.039 48.0859C153.31 48.0859 152.735 48.3385 152.313 48.8438C151.896 49.3438 151.688 50.0391 151.688 50.9297C151.688 51.8203 151.894 52.5078 152.305 52.9922C152.722 53.4766 153.302 53.7188 154.047 53.7188ZM160.051 55V43.1562H161.911V55H160.051ZM171.68 55H169.305L166.141 51H166.11V55H164.251V43.1562H166.11V50.5781H166.141L169.126 46.8047H171.423L168.016 50.7109L171.68 55ZM173.755 45.3594C173.416 45.3594 173.135 45.2526 172.911 45.0391C172.692 44.8255 172.583 44.5625 172.583 44.25C172.583 43.9271 172.692 43.6615 172.911 43.4531C173.135 43.2396 173.416 43.1328 173.755 43.1328C174.098 43.1328 174.38 43.2396 174.598 43.4531C174.822 43.6615 174.934 43.9271 174.934 44.25C174.934 44.5677 174.822 44.8333 174.598 45.0469C174.38 45.2552 174.098 45.3594 173.755 45.3594ZM174.669 55H172.809V46.8047H174.669V55ZM181.603 54.8828C181.368 54.9818 181.121 55.0547 180.86 55.1016C180.6 55.1536 180.321 55.1797 180.024 55.1797C179.259 55.1797 178.67 54.9792 178.259 54.5781C177.853 54.1719 177.649 53.5677 177.649 52.7656V48.25H176.282V46.8047H177.649V44.9375L179.509 44.3828V46.8047H181.47V48.25H179.509V52.6172C179.509 53.0234 179.582 53.3151 179.728 53.4922C179.879 53.6693 180.108 53.7578 180.415 53.7578C180.566 53.7578 180.709 53.7396 180.845 53.7031C180.98 53.6667 181.103 53.6224 181.212 53.5703L181.603 54.8828Z" fill="black" fill-opacity="0.8956"/>
<path d="M1224.93 54V44.1973H1228.11C1229.08 44.1973 1229.83 44.4023 1230.37 44.8125C1230.91 45.2181 1231.17 45.7832 1231.17 46.5078C1231.17 47.0501 1231.02 47.5218 1230.71 47.9229C1230.4 48.3239 1230 48.6064 1229.49 48.7705V48.7979C1230.14 48.8753 1230.65 49.126 1231.04 49.5498C1231.43 49.9691 1231.62 50.4977 1231.62 51.1357C1231.62 52.0016 1231.31 52.6966 1230.68 53.2207C1230.06 53.7402 1229.25 54 1228.24 54H1224.93ZM1226.6 45.5234V48.3125H1227.67C1228.22 48.3125 1228.64 48.1826 1228.95 47.9229C1229.27 47.6585 1229.42 47.2917 1229.42 46.8223C1229.42 46.3848 1229.28 46.0589 1228.99 45.8447C1228.7 45.6305 1228.26 45.5234 1227.68 45.5234H1226.6ZM1226.6 49.6387V52.6738H1227.98C1228.57 52.6738 1229.04 52.5348 1229.37 52.2568C1229.7 51.9743 1229.87 51.5915 1229.87 51.1084C1229.87 50.6299 1229.7 50.2653 1229.36 50.0146C1229.01 49.764 1228.52 49.6387 1227.87 49.6387H1226.6ZM1238.88 54H1237.31V52.9131H1237.28C1237.04 53.3324 1236.73 53.6468 1236.37 53.8564C1236.01 54.0661 1235.6 54.1709 1235.13 54.1709C1234.47 54.1709 1233.93 53.9795 1233.5 53.5967C1233.08 53.2093 1232.86 52.6829 1232.86 52.0176C1232.86 51.3796 1233.08 50.8577 1233.5 50.4521C1233.93 50.042 1234.56 49.7754 1235.41 49.6523L1237.31 49.3994V49.249C1237.31 48.766 1237.19 48.415 1236.94 48.1963C1236.69 47.973 1236.34 47.8613 1235.91 47.8613C1235.57 47.8613 1235.22 47.9229 1234.87 48.0459C1234.52 48.1689 1234.18 48.3558 1233.85 48.6064L1233.14 47.6357C1233.58 47.3031 1234.03 47.057 1234.5 46.8975C1234.97 46.738 1235.48 46.6582 1236.04 46.6582C1236.99 46.6582 1237.71 46.8975 1238.17 47.376C1238.64 47.8499 1238.88 48.5609 1238.88 49.5088V54ZM1237.31 51.0811V50.4727L1235.78 50.6777C1235.32 50.7415 1234.98 50.8646 1234.75 51.0469C1234.52 51.2246 1234.41 51.4912 1234.41 51.8467C1234.41 52.1885 1234.52 52.4596 1234.73 52.6602C1234.94 52.8561 1235.22 52.9541 1235.57 52.9541C1236.09 52.9541 1236.51 52.7764 1236.83 52.4209C1237.15 52.0654 1237.31 51.6188 1237.31 51.0811ZM1240.31 53.4395L1241.01 52.291C1241.29 52.4824 1241.58 52.6374 1241.89 52.7559C1242.2 52.8743 1242.55 52.9336 1242.92 52.9336C1243.32 52.9336 1243.63 52.8607 1243.86 52.7148C1244.08 52.569 1244.19 52.348 1244.19 52.0518C1244.19 51.8102 1244.1 51.6143 1243.91 51.4639C1243.72 51.3089 1243.41 51.179 1242.97 51.0742C1242.07 50.8646 1241.45 50.5866 1241.09 50.2402C1240.73 49.8939 1240.55 49.4382 1240.55 48.873C1240.55 48.2214 1240.81 47.6904 1241.32 47.2803C1241.83 46.8656 1242.49 46.6582 1243.31 46.6582C1243.71 46.6582 1244.1 46.7106 1244.46 46.8154C1244.82 46.9157 1245.17 47.0775 1245.52 47.3008L1244.87 48.415C1244.57 48.2236 1244.29 48.0869 1244.03 48.0049C1243.78 47.9229 1243.52 47.8818 1243.25 47.8818C1242.87 47.8818 1242.56 47.9548 1242.34 48.1006C1242.13 48.2464 1242.02 48.4469 1242.02 48.7021C1242.02 48.9665 1242.13 49.1647 1242.33 49.2969C1242.54 49.4245 1242.9 49.5498 1243.42 49.6729C1244.2 49.8551 1244.77 50.124 1245.13 50.4795C1245.49 50.8304 1245.67 51.3021 1245.67 51.8945C1245.67 52.5827 1245.42 53.1341 1244.91 53.5488C1244.4 53.959 1243.72 54.1641 1242.86 54.1641C1242.39 54.1641 1241.94 54.1048 1241.52 53.9863C1241.1 53.8633 1240.69 53.681 1240.31 53.4395ZM1248.09 45.5645C1247.79 45.5645 1247.54 45.471 1247.35 45.2842C1247.16 45.0973 1247.06 44.8672 1247.06 44.5938C1247.06 44.3112 1247.16 44.0788 1247.35 43.8965C1247.54 43.7096 1247.79 43.6162 1248.09 43.6162C1248.39 43.6162 1248.63 43.7096 1248.83 43.8965C1249.02 44.0788 1249.12 44.3112 1249.12 44.5938C1249.12 44.8717 1249.02 45.1042 1248.83 45.291C1248.63 45.4733 1248.39 45.5645 1248.09 45.5645ZM1248.89 54H1247.26V46.8291H1248.89V54ZM1256.58 53.5352C1256.22 53.7585 1255.86 53.9202 1255.5 54.0205C1255.15 54.1208 1254.76 54.1709 1254.35 54.1709C1253.25 54.1709 1252.36 53.8473 1251.7 53.2002C1251.05 52.5531 1250.72 51.6781 1250.72 50.5752C1250.72 49.3812 1251.06 48.431 1251.74 47.7246C1252.43 47.0137 1253.36 46.6582 1254.53 46.6582C1254.93 46.6582 1255.29 46.7015 1255.62 46.7881C1255.95 46.8747 1256.29 47.0137 1256.63 47.2051L1255.99 48.3398C1255.75 48.2031 1255.52 48.1051 1255.29 48.0459C1255.06 47.9821 1254.82 47.9502 1254.55 47.9502C1253.85 47.9502 1253.32 48.1781 1252.94 48.6338C1252.57 49.085 1252.38 49.6865 1252.38 50.4385C1252.38 51.2223 1252.58 51.8262 1252.97 52.25C1253.38 52.6693 1253.88 52.8789 1254.5 52.8789C1254.7 52.8789 1254.92 52.8447 1255.16 52.7764C1255.4 52.7035 1255.65 52.5895 1255.91 52.4346L1256.58 53.5352ZM1263.79 54H1262.11V44.1973H1263.79V54ZM1272.55 54H1270.92V49.9531C1270.92 49.2878 1270.8 48.7887 1270.56 48.4561C1270.32 48.1188 1269.95 47.9502 1269.46 47.9502C1268.98 47.9502 1268.57 48.1348 1268.25 48.5039C1267.94 48.873 1267.78 49.3402 1267.78 49.9053V54H1266.15V46.8291H1267.78V47.9912H1267.81C1268.08 47.5446 1268.41 47.2119 1268.79 46.9932C1269.18 46.7699 1269.63 46.6582 1270.14 46.6582C1270.93 46.6582 1271.53 46.9089 1271.93 47.4102C1272.34 47.9069 1272.55 48.6406 1272.55 49.6113V54ZM1276.26 53.0498H1276.23V57.2197H1274.6V46.8291H1276.23V48.0117H1276.26C1276.53 47.5605 1276.87 47.2233 1277.27 47C1277.68 46.7721 1278.14 46.6582 1278.66 46.6582C1279.58 46.6582 1280.3 46.9795 1280.82 47.6221C1281.33 48.2601 1281.59 49.1191 1281.59 50.1992C1281.59 51.4023 1281.3 52.3662 1280.71 53.0908C1280.12 53.8109 1279.33 54.1709 1278.33 54.1709C1277.88 54.1709 1277.49 54.0775 1277.14 53.8906C1276.79 53.7038 1276.5 53.4235 1276.26 53.0498ZM1276.21 50.1377V50.9443C1276.21 51.4958 1276.38 51.9561 1276.71 52.3252C1277.04 52.6943 1277.47 52.8789 1277.98 52.8789C1278.59 52.8789 1279.07 52.6442 1279.41 52.1748C1279.75 51.7054 1279.92 51.0492 1279.92 50.2061C1279.92 49.4814 1279.76 48.9255 1279.45 48.5381C1279.14 48.1462 1278.7 47.9502 1278.13 47.9502C1277.56 47.9502 1277.09 48.1553 1276.74 48.5654C1276.39 48.9756 1276.21 49.4997 1276.21 50.1377ZM1289.59 54H1287.96V52.8789H1287.93C1287.68 53.3073 1287.37 53.6309 1287 53.8496C1286.63 54.0638 1286.2 54.1709 1285.73 54.1709C1284.88 54.1709 1284.25 53.918 1283.83 53.4121C1283.41 52.9062 1283.2 52.1452 1283.2 51.1289V46.8291H1284.82V50.9443C1284.82 51.5869 1284.94 52.07 1285.19 52.3936C1285.44 52.7171 1285.81 52.8789 1286.31 52.8789C1286.8 52.8789 1287.2 52.7035 1287.5 52.3525C1287.81 51.9971 1287.96 51.5277 1287.96 50.9443V46.8291H1289.59V54ZM1295.7 53.8975C1295.49 53.984 1295.28 54.0479 1295.05 54.0889C1294.82 54.1344 1294.58 54.1572 1294.32 54.1572C1293.65 54.1572 1293.13 53.9818 1292.77 53.6309C1292.42 53.2754 1292.24 52.7467 1292.24 52.0449V48.0938H1291.04V46.8291H1292.24V45.1953L1293.87 44.71V46.8291H1295.58V48.0938H1293.87V51.915C1293.87 52.2705 1293.93 52.5257 1294.06 52.6807C1294.19 52.8356 1294.39 52.9131 1294.66 52.9131C1294.79 52.9131 1294.92 52.8971 1295.04 52.8652C1295.15 52.8333 1295.26 52.7946 1295.36 52.749L1295.7 53.8975Z" fill="black" fill-opacity="0.8956"/>
<path d="M101.545 218V170.387H116.387C124.732 170.387 131.018 172.301 135.246 176.131C139.496 179.96 141.621 185.782 141.621 193.596C141.621 201.144 139.308 207.098 134.682 211.459C130.077 215.82 123.88 218 116.088 218H101.545ZM109.447 177.16V211.227H115.756C121.268 211.227 125.573 209.732 128.672 206.744C131.771 203.734 133.32 199.395 133.32 193.729C133.32 188.195 131.848 184.055 128.904 181.311C125.96 178.544 121.622 177.16 115.889 177.16H109.447ZM152.711 177.791C151.25 177.791 150.055 177.326 149.125 176.396C148.217 175.445 147.764 174.305 147.764 172.977C147.764 171.626 148.217 170.486 149.125 169.557C150.055 168.627 151.25 168.162 152.711 168.162C154.194 168.162 155.389 168.627 156.297 169.557C157.227 170.486 157.691 171.626 157.691 172.977C157.691 174.349 157.227 175.5 156.297 176.43C155.389 177.337 154.194 177.791 152.711 177.791ZM156.562 218H148.826V184H156.562V218ZM191.924 218H184.453V213.783H184.32C183.125 215.421 181.664 216.672 179.938 217.535C178.211 218.376 176.285 218.797 174.16 218.797C171.017 218.797 168.438 217.9 166.424 216.107C164.432 214.314 163.436 211.968 163.436 209.068C163.436 205.947 164.432 203.446 166.424 201.564C168.438 199.661 171.316 198.499 175.057 198.078L184.486 197.016V195.389C184.486 193.286 183.9 191.714 182.727 190.674C181.553 189.611 180.015 189.08 178.111 189.08C176.23 189.08 174.647 189.501 173.363 190.342C172.079 191.183 171.017 192.389 170.176 193.961L164.398 191.006C165.549 188.726 167.365 186.855 169.844 185.395C172.323 183.934 175.267 183.203 178.676 183.203C182.97 183.203 186.246 184.332 188.504 186.59C190.784 188.826 191.924 192.079 191.924 196.352V218ZM184.486 204.188V202.328L176.285 203.225C174.404 203.424 173.031 203.944 172.168 204.785C171.305 205.626 170.873 206.755 170.873 208.172C170.873 209.611 171.36 210.784 172.334 211.691C173.33 212.577 174.614 213.02 176.186 213.02C178.665 213.02 180.668 212.189 182.195 210.529C183.723 208.847 184.486 206.733 184.486 204.188ZM200.689 218V167.664H208.426V218H200.689ZM232.332 209.002L239.205 205.549C240.201 207.696 241.551 209.301 243.256 210.363C244.982 211.426 246.997 211.957 249.299 211.957C252.044 211.957 254.158 211.359 255.641 210.164C257.146 208.969 257.898 207.298 257.898 205.15C257.898 203.07 257.157 201.41 255.674 200.17C254.191 198.93 251.911 197.945 248.834 197.215C243.831 196.042 240.212 194.382 237.977 192.234C235.741 190.065 234.623 187.154 234.623 183.502C234.623 179.141 236.139 175.743 239.172 173.309C242.227 170.852 245.99 169.623 250.461 169.623C253.826 169.623 256.792 170.365 259.359 171.848C261.927 173.309 263.986 175.489 265.535 178.389L258.861 181.643C257.843 179.761 256.637 178.411 255.242 177.592C253.848 176.773 252.154 176.363 250.162 176.363C247.683 176.363 245.757 176.928 244.385 178.057C243.012 179.163 242.326 180.646 242.326 182.506C242.326 184.365 242.957 185.826 244.219 186.889C245.48 187.951 247.749 188.859 251.025 189.611C256.072 190.74 259.758 192.478 262.082 194.824C264.428 197.171 265.602 200.325 265.602 204.287C265.602 208.515 264.196 211.99 261.385 214.713C258.574 217.436 254.567 218.797 249.365 218.797C245.359 218.797 241.861 217.945 238.873 216.24C235.907 214.536 233.727 212.123 232.332 209.002ZM273.006 218V167.664H280.742V218H273.006ZM294.023 177.791C292.562 177.791 291.367 177.326 290.438 176.396C289.53 175.445 289.076 174.305 289.076 172.977C289.076 171.626 289.53 170.486 290.438 169.557C291.367 168.627 292.562 168.162 294.023 168.162C295.507 168.162 296.702 168.627 297.609 169.557C298.539 170.486 299.004 171.626 299.004 172.977C299.004 174.349 298.539 175.5 297.609 176.43C296.702 177.337 295.507 177.791 294.023 177.791ZM297.875 218H290.139V184H297.875V218ZM330.879 213.285C329.639 215.1 328.079 216.473 326.197 217.402C324.316 218.332 322.18 218.797 319.789 218.797C315.229 218.797 311.632 217.292 308.998 214.281C306.386 211.249 305.08 207.087 305.08 201.797C305.08 196.086 306.541 191.559 309.463 188.217C312.407 184.874 316.325 183.203 321.217 183.203C323.342 183.203 325.257 183.624 326.961 184.465C328.688 185.306 329.993 186.368 330.879 187.652H331.012V167.664H338.748V218H331.012V213.285H330.879ZM312.949 201.498C312.949 204.951 313.735 207.652 315.307 209.6C316.878 211.548 319.048 212.521 321.814 212.521C324.648 212.521 326.906 211.548 328.588 209.6C330.27 207.652 331.111 205.15 331.111 202.096V198.211C331.111 195.732 330.292 193.662 328.654 192.002C327.038 190.32 324.936 189.479 322.346 189.479C319.446 189.479 317.155 190.519 315.473 192.6C313.79 194.68 312.949 197.646 312.949 201.498ZM377.197 202.893H353.723C353.789 206.169 354.674 208.637 356.379 210.297C358.105 211.935 360.219 212.754 362.721 212.754C364.492 212.754 366.063 212.344 367.436 211.525C368.808 210.684 369.97 209.445 370.922 207.807L376.865 211.027C375.316 213.507 373.335 215.421 370.922 216.771C368.531 218.122 365.709 218.797 362.455 218.797C357.452 218.797 353.446 217.292 350.436 214.281C347.425 211.271 345.92 206.943 345.92 201.299C345.92 195.92 347.458 191.559 350.535 188.217C353.634 184.874 357.508 183.203 362.156 183.203C366.938 183.203 370.634 184.631 373.246 187.486C375.88 190.342 377.197 194.481 377.197 199.904V202.893ZM369.727 197.381C369.727 194.725 369.062 192.666 367.734 191.205C366.406 189.744 364.591 189.014 362.289 189.014C359.876 189.014 357.917 189.822 356.412 191.438C354.907 193.031 353.999 195.012 353.689 197.381H369.727ZM403.627 190.939C403.007 190.696 402.365 190.508 401.701 190.375C401.059 190.22 400.373 190.143 399.643 190.143C397.363 190.143 395.514 191.161 394.098 193.197C392.681 195.234 391.973 197.89 391.973 201.166V218H384.236V184H391.973V190.143H392.105C392.902 187.973 394.076 186.313 395.625 185.162C397.174 183.989 398.967 183.402 401.004 183.402C401.867 183.402 402.664 183.469 403.395 183.602C404.125 183.734 404.911 183.989 405.752 184.365L403.627 190.939Z" fill="black" fill-opacity="0.8956"/>
<path d="M96.1934 287L101.027 274.396H102.557L107.408 287H105.773L104.499 283.625H99.041L97.8369 287H96.1934ZM99.5332 282.298H104.016L101.977 276.77C101.941 276.682 101.909 276.567 101.88 276.427C101.851 276.286 101.818 276.119 101.783 275.926H101.748C101.719 276.102 101.687 276.26 101.651 276.4C101.622 276.541 101.587 276.664 101.546 276.77L99.5332 282.298ZM113.174 286.323L113.859 285.216C114.252 285.474 114.636 285.67 115.011 285.805C115.386 285.934 115.79 285.998 116.224 285.998C116.839 285.998 117.305 285.884 117.621 285.655C117.943 285.427 118.104 285.084 118.104 284.627C118.104 284.258 117.961 283.947 117.674 283.695C117.393 283.438 116.95 283.232 116.347 283.08C115.222 282.793 114.451 282.433 114.035 281.999C113.619 281.56 113.411 281.021 113.411 280.382C113.411 279.644 113.689 279.028 114.246 278.536C114.803 278.038 115.579 277.789 116.575 277.789C117.056 277.789 117.513 277.851 117.946 277.974C118.38 278.097 118.822 278.308 119.273 278.606L118.632 279.696C118.222 279.438 117.853 279.26 117.524 279.16C117.202 279.055 116.874 279.002 116.54 279.002C115.96 279.002 115.518 279.11 115.213 279.327C114.908 279.538 114.756 279.846 114.756 280.25C114.756 280.654 114.911 280.959 115.222 281.164C115.538 281.369 116.045 281.562 116.742 281.744C117.656 281.99 118.339 282.336 118.79 282.781C119.247 283.221 119.476 283.798 119.476 284.513C119.476 285.345 119.18 286.004 118.588 286.49C118.002 286.971 117.196 287.211 116.171 287.211C115.62 287.211 115.09 287.135 114.58 286.982C114.076 286.83 113.607 286.61 113.174 286.323ZM121.664 287V273.676H123.105V287H121.664ZM126.762 275.847C126.469 275.847 126.223 275.75 126.023 275.557C125.824 275.357 125.725 275.114 125.725 274.827C125.725 274.54 125.824 274.3 126.023 274.106C126.223 273.907 126.469 273.808 126.762 273.808C127.055 273.808 127.301 273.907 127.5 274.106C127.699 274.3 127.799 274.54 127.799 274.827C127.799 275.114 127.699 275.357 127.5 275.557C127.301 275.75 127.055 275.847 126.762 275.847ZM127.465 287H126.023V278H127.465V287ZM136.588 285.471C136.254 286.051 135.829 286.487 135.313 286.78C134.804 287.067 134.197 287.211 133.494 287.211C132.363 287.211 131.458 286.81 130.778 286.007C130.104 285.198 129.768 284.1 129.768 282.711C129.768 281.223 130.143 280.03 130.893 279.134C131.643 278.237 132.642 277.789 133.89 277.789C134.511 277.789 135.044 277.912 135.489 278.158C135.94 278.398 136.307 278.762 136.588 279.248H136.623V273.676H138.064V287H136.623V285.471H136.588ZM131.244 282.641C131.244 283.678 131.484 284.498 131.965 285.102C132.451 285.699 133.102 285.998 133.916 285.998C134.725 285.998 135.378 285.708 135.876 285.128C136.374 284.548 136.623 283.815 136.623 282.931V281.604C136.623 280.877 136.38 280.262 135.894 279.758C135.413 279.254 134.807 279.002 134.074 279.002C133.195 279.002 132.504 279.324 132 279.969C131.496 280.613 131.244 281.504 131.244 282.641ZM148.216 282.825H141.853C141.876 283.839 142.143 284.621 142.652 285.172C143.168 285.717 143.889 285.989 144.814 285.989C145.219 285.989 145.623 285.931 146.027 285.813C146.438 285.69 146.842 285.497 147.24 285.233L147.908 286.262C147.398 286.59 146.889 286.83 146.379 286.982C145.869 287.135 145.31 287.211 144.7 287.211C143.341 287.211 142.28 286.807 141.519 285.998C140.757 285.189 140.373 284.062 140.367 282.614C140.361 281.167 140.742 280.001 141.51 279.116C142.283 278.231 143.285 277.789 144.516 277.789C145.688 277.789 146.596 278.173 147.24 278.94C147.891 279.702 148.216 280.76 148.216 282.113V282.825ZM146.739 281.647C146.733 280.815 146.531 280.168 146.133 279.705C145.734 279.236 145.187 279.002 144.489 279.002C143.804 279.002 143.221 279.242 142.74 279.723C142.266 280.197 141.976 280.839 141.87 281.647H146.739ZM154.843 279.23C154.731 279.195 154.632 279.172 154.544 279.16C154.456 279.143 154.345 279.134 154.21 279.134C153.478 279.134 152.9 279.447 152.479 280.074C152.057 280.695 151.846 281.475 151.846 282.412V287H150.404V278H151.846V279.784H151.881C152.086 279.151 152.399 278.671 152.821 278.343C153.243 278.009 153.729 277.842 154.28 277.842C154.462 277.842 154.614 277.851 154.737 277.868C154.866 277.886 154.98 277.912 155.08 277.947L154.843 279.23ZM162.34 275.847C162.047 275.847 161.801 275.75 161.602 275.557C161.402 275.357 161.303 275.114 161.303 274.827C161.303 274.54 161.402 274.3 161.602 274.106C161.801 273.907 162.047 273.808 162.34 273.808C162.633 273.808 162.879 273.907 163.078 274.106C163.277 274.3 163.377 274.54 163.377 274.827C163.377 275.114 163.277 275.357 163.078 275.557C162.879 275.75 162.633 275.847 162.34 275.847ZM163.043 287H161.602V278H163.043V287ZM165.117 286.323L165.803 285.216C166.195 285.474 166.579 285.67 166.954 285.805C167.329 285.934 167.733 285.998 168.167 285.998C168.782 285.998 169.248 285.884 169.564 285.655C169.887 285.427 170.048 285.084 170.048 284.627C170.048 284.258 169.904 283.947 169.617 283.695C169.336 283.438 168.894 283.232 168.29 283.08C167.165 282.793 166.395 282.433 165.979 281.999C165.562 281.56 165.354 281.021 165.354 280.382C165.354 279.644 165.633 279.028 166.189 278.536C166.746 278.038 167.522 277.789 168.519 277.789C168.999 277.789 169.456 277.851 169.89 277.974C170.323 278.097 170.766 278.308 171.217 278.606L170.575 279.696C170.165 279.438 169.796 279.26 169.468 279.16C169.146 279.055 168.817 279.002 168.483 279.002C167.903 279.002 167.461 279.11 167.156 279.327C166.852 279.538 166.699 279.846 166.699 280.25C166.699 280.654 166.854 280.959 167.165 281.164C167.481 281.369 167.988 281.562 168.686 281.744C169.6 281.99 170.282 282.336 170.733 282.781C171.19 283.221 171.419 283.798 171.419 284.513C171.419 285.345 171.123 286.004 170.531 286.49C169.945 286.971 169.14 287.211 168.114 287.211C167.563 287.211 167.033 287.135 166.523 286.982C166.02 286.83 165.551 286.61 165.117 286.323ZM184.919 287H183.478V285.594H183.442C183.132 286.133 182.748 286.537 182.291 286.807C181.84 287.076 181.312 287.211 180.709 287.211C179.865 287.211 179.183 286.965 178.661 286.473C178.14 285.98 177.879 285.327 177.879 284.513C177.879 283.745 178.143 283.109 178.67 282.605C179.197 282.102 179.944 281.779 180.911 281.639L183.478 281.296V281.094C183.478 280.338 183.302 279.802 182.95 279.485C182.599 279.163 182.13 279.002 181.544 279.002C181.075 279.002 180.624 279.09 180.19 279.266C179.757 279.441 179.35 279.711 178.969 280.074L178.125 279.204C178.629 278.718 179.165 278.36 179.733 278.132C180.302 277.903 180.935 277.789 181.632 277.789C182.722 277.789 183.542 278.07 184.093 278.633C184.644 279.189 184.919 280.027 184.919 281.146V287ZM183.478 283.344V282.447L181.307 282.746C180.645 282.84 180.146 283.007 179.812 283.247C179.479 283.487 179.312 283.865 179.312 284.381C179.312 284.92 179.467 285.333 179.777 285.62C180.094 285.901 180.478 286.042 180.929 286.042C181.708 286.042 182.326 285.787 182.783 285.277C183.246 284.768 183.478 284.123 183.478 283.344ZM198.973 286.464C198.557 286.722 198.141 286.909 197.725 287.026C197.309 287.149 196.854 287.211 196.362 287.211C195.097 287.211 194.057 286.818 193.242 286.033C192.434 285.248 192.029 284.135 192.029 282.693C192.029 281.229 192.437 280.045 193.251 279.143C194.071 278.24 195.196 277.789 196.626 277.789C197.089 277.789 197.528 277.845 197.944 277.956C198.366 278.067 198.791 278.249 199.219 278.501L198.612 279.556C198.278 279.368 197.95 279.23 197.628 279.143C197.306 279.055 196.954 279.011 196.573 279.011C195.583 279.011 194.824 279.342 194.297 280.004C193.77 280.666 193.506 281.507 193.506 282.526C193.506 283.651 193.781 284.51 194.332 285.102C194.889 285.693 195.606 285.989 196.485 285.989C196.772 285.989 197.071 285.945 197.382 285.857C197.698 285.764 198.015 285.62 198.331 285.427L198.973 286.464ZM204.721 287.211C203.391 287.211 202.327 286.792 201.53 285.954C200.739 285.11 200.344 283.994 200.344 282.605C200.344 281.1 200.754 279.922 201.574 279.072C202.395 278.223 203.514 277.795 204.932 277.789C206.273 277.783 207.319 278.196 208.069 279.028C208.825 279.86 209.203 281.006 209.203 282.465C209.203 283.906 208.796 285.058 207.981 285.919C207.173 286.78 206.086 287.211 204.721 287.211ZM204.826 285.998C205.758 285.998 206.473 285.696 206.971 285.093C207.475 284.483 207.727 283.625 207.727 282.518C207.727 281.387 207.475 280.52 206.971 279.916C206.467 279.307 205.752 279.002 204.826 279.002C203.9 279.002 203.168 279.318 202.629 279.951C202.09 280.584 201.82 281.451 201.82 282.553C201.82 283.619 202.093 284.46 202.638 285.075C203.183 285.69 203.912 285.998 204.826 285.998ZM218.977 287H217.535V281.867C217.535 280.912 217.359 280.197 217.008 279.723C216.662 279.242 216.141 279.002 215.443 279.002C214.723 279.002 214.125 279.274 213.65 279.819C213.182 280.358 212.947 281.041 212.947 281.867V287H211.506V278H212.947V279.494H212.982C213.322 278.926 213.738 278.501 214.23 278.22C214.723 277.933 215.291 277.789 215.936 277.789C216.92 277.789 217.673 278.108 218.194 278.747C218.716 279.38 218.977 280.297 218.977 281.498V287ZM225.99 286.895C225.744 286.994 225.501 287.067 225.261 287.114C225.026 287.167 224.76 287.193 224.461 287.193C223.746 287.193 223.184 286.985 222.773 286.569C222.369 286.147 222.167 285.526 222.167 284.706V279.23H220.62V278H222.167V275.803L223.608 275.337V278H225.876V279.23H223.608V284.539C223.608 285.055 223.699 285.427 223.881 285.655C224.068 285.884 224.347 285.998 224.716 285.998C224.892 285.998 225.062 285.978 225.226 285.937C225.39 285.896 225.527 285.849 225.639 285.796L225.99 286.895ZM232.239 279.23C232.128 279.195 232.028 279.172 231.94 279.16C231.853 279.143 231.741 279.134 231.606 279.134C230.874 279.134 230.297 279.447 229.875 280.074C229.453 280.695 229.242 281.475 229.242 282.412V287H227.801V278H229.242V279.784H229.277C229.482 279.151 229.796 278.671 230.218 278.343C230.64 278.009 231.126 277.842 231.677 277.842C231.858 277.842 232.011 277.851 232.134 277.868C232.263 277.886 232.377 277.912 232.477 277.947L232.239 279.23ZM237.82 287.211C236.49 287.211 235.427 286.792 234.63 285.954C233.839 285.11 233.443 283.994 233.443 282.605C233.443 281.1 233.854 279.922 234.674 279.072C235.494 278.223 236.613 277.795 238.031 277.789C239.373 277.783 240.419 278.196 241.169 279.028C241.925 279.86 242.303 281.006 242.303 282.465C242.303 283.906 241.896 285.058 241.081 285.919C240.272 286.78 239.186 287.211 237.82 287.211ZM237.926 285.998C238.857 285.998 239.572 285.696 240.07 285.093C240.574 284.483 240.826 283.625 240.826 282.518C240.826 281.387 240.574 280.52 240.07 279.916C239.566 279.307 238.852 279.002 237.926 279.002C237 279.002 236.268 279.318 235.729 279.951C235.189 280.584 234.92 281.451 234.92 282.553C234.92 283.619 235.192 284.46 235.737 285.075C236.282 285.69 237.012 285.998 237.926 285.998ZM244.605 287V273.676H246.047V287H244.605ZM258.193 286.895C257.947 286.994 257.704 287.067 257.464 287.114C257.229 287.167 256.963 287.193 256.664 287.193C255.949 287.193 255.387 286.985 254.977 286.569C254.572 286.147 254.37 285.526 254.37 284.706V279.23H252.823V278H254.37V275.803L255.812 275.337V278H258.079V279.23H255.812V284.539C255.812 285.055 255.902 285.427 256.084 285.655C256.271 285.884 256.55 285.998 256.919 285.998C257.095 285.998 257.265 285.978 257.429 285.937C257.593 285.896 257.73 285.849 257.842 285.796L258.193 286.895ZM267.475 287H266.033V281.814C266.033 280.877 265.857 280.174 265.506 279.705C265.16 279.236 264.639 279.002 263.941 279.002C263.238 279.002 262.646 279.274 262.166 279.819C261.686 280.358 261.445 281.053 261.445 281.902V287H260.004V273.676H261.445V279.494H261.48C261.826 278.926 262.245 278.501 262.737 278.22C263.229 277.933 263.795 277.789 264.434 277.789C265.447 277.789 266.206 278.094 266.71 278.703C267.22 279.312 267.475 280.229 267.475 281.454V287ZM276.571 287H275.13V285.594H275.095C274.784 286.133 274.4 286.537 273.943 286.807C273.492 287.076 272.965 287.211 272.361 287.211C271.518 287.211 270.835 286.965 270.313 286.473C269.792 285.98 269.531 285.327 269.531 284.513C269.531 283.745 269.795 283.109 270.322 282.605C270.85 282.102 271.597 281.779 272.563 281.639L275.13 281.296V281.094C275.13 280.338 274.954 279.802 274.603 279.485C274.251 279.163 273.782 279.002 273.196 279.002C272.728 279.002 272.276 279.09 271.843 279.266C271.409 279.441 271.002 279.711 270.621 280.074L269.777 279.204C270.281 278.718 270.817 278.36 271.386 278.132C271.954 277.903 272.587 277.789 273.284 277.789C274.374 277.789 275.194 278.07 275.745 278.633C276.296 279.189 276.571 280.027 276.571 281.146V287ZM275.13 283.344V282.447L272.959 282.746C272.297 282.84 271.799 283.007 271.465 283.247C271.131 283.487 270.964 283.865 270.964 284.381C270.964 284.92 271.119 285.333 271.43 285.62C271.746 285.901 272.13 286.042 272.581 286.042C273.36 286.042 273.979 285.787 274.436 285.277C274.898 284.768 275.13 284.123 275.13 283.344ZM283.646 286.895C283.4 286.994 283.157 287.067 282.917 287.114C282.683 287.167 282.416 287.193 282.117 287.193C281.402 287.193 280.84 286.985 280.43 286.569C280.025 286.147 279.823 285.526 279.823 284.706V279.23H278.276V278H279.823V275.803L281.265 275.337V278H283.532V279.23H281.265V284.539C281.265 285.055 281.355 285.427 281.537 285.655C281.725 285.884 282.003 285.998 282.372 285.998C282.548 285.998 282.718 285.978 282.882 285.937C283.046 285.896 283.184 285.849 283.295 285.796L283.646 286.895ZM290.396 287V273.676H291.838V287H290.396ZM301.989 282.825H295.626C295.649 283.839 295.916 284.621 296.426 285.172C296.941 285.717 297.662 285.989 298.588 285.989C298.992 285.989 299.396 285.931 299.801 285.813C300.211 285.69 300.615 285.497 301.014 285.233L301.682 286.262C301.172 286.59 300.662 286.83 300.152 286.982C299.643 287.135 299.083 287.211 298.474 287.211C297.114 287.211 296.054 286.807 295.292 285.998C294.53 285.189 294.146 284.062 294.141 282.614C294.135 281.167 294.516 280.001 295.283 279.116C296.057 278.231 297.059 277.789 298.289 277.789C299.461 277.789 300.369 278.173 301.014 278.94C301.664 279.702 301.989 280.76 301.989 282.113V282.825ZM300.513 281.647C300.507 280.815 300.305 280.168 299.906 279.705C299.508 279.236 298.96 279.002 298.263 279.002C297.577 279.002 296.994 279.242 296.514 279.723C296.039 280.197 295.749 280.839 295.644 281.647H300.513ZM308.467 286.895C308.221 286.994 307.978 287.067 307.737 287.114C307.503 287.167 307.236 287.193 306.938 287.193C306.223 287.193 305.66 286.985 305.25 286.569C304.846 286.147 304.644 285.526 304.644 284.706V279.23H303.097V278H304.644V275.803L306.085 275.337V278H308.353V279.23H306.085V284.539C306.085 285.055 306.176 285.427 306.357 285.655C306.545 285.884 306.823 285.998 307.192 285.998C307.368 285.998 307.538 285.978 307.702 285.937C307.866 285.896 308.004 285.849 308.115 285.796L308.467 286.895ZM309.434 286.323L310.119 285.216C310.512 285.474 310.896 285.67 311.271 285.805C311.646 285.934 312.05 285.998 312.483 285.998C313.099 285.998 313.564 285.884 313.881 285.655C314.203 285.427 314.364 285.084 314.364 284.627C314.364 284.258 314.221 283.947 313.934 283.695C313.652 283.438 313.21 283.232 312.606 283.08C311.481 282.793 310.711 282.433 310.295 281.999C309.879 281.56 309.671 281.021 309.671 280.382C309.671 279.644 309.949 279.028 310.506 278.536C311.062 278.038 311.839 277.789 312.835 277.789C313.315 277.789 313.772 277.851 314.206 277.974C314.64 278.097 315.082 278.308 315.533 278.606L314.892 279.696C314.481 279.438 314.112 279.26 313.784 279.16C313.462 279.055 313.134 279.002 312.8 279.002C312.22 279.002 311.777 279.11 311.473 279.327C311.168 279.538 311.016 279.846 311.016 280.25C311.016 280.654 311.171 280.959 311.481 281.164C311.798 281.369 312.305 281.562 313.002 281.744C313.916 281.99 314.599 282.336 315.05 282.781C315.507 283.221 315.735 283.798 315.735 284.513C315.735 285.345 315.439 286.004 314.848 286.49C314.262 286.971 313.456 287.211 312.431 287.211C311.88 287.211 311.35 287.135 310.84 286.982C310.336 286.83 309.867 286.61 309.434 286.323ZM327.152 286.895C326.906 286.994 326.663 287.067 326.423 287.114C326.188 287.167 325.922 287.193 325.623 287.193C324.908 287.193 324.346 286.985 323.936 286.569C323.531 286.147 323.329 285.526 323.329 284.706V279.23H321.782V278H323.329V275.803L324.771 275.337V278H327.038V279.23H324.771V284.539C324.771 285.055 324.861 285.427 325.043 285.655C325.23 285.884 325.509 285.998 325.878 285.998C326.054 285.998 326.224 285.978 326.388 285.937C326.552 285.896 326.689 285.849 326.801 285.796L327.152 286.895ZM336.434 287H334.992V281.814C334.992 280.877 334.816 280.174 334.465 279.705C334.119 279.236 333.598 279.002 332.9 279.002C332.197 279.002 331.605 279.274 331.125 279.819C330.645 280.358 330.404 281.053 330.404 281.902V287H328.963V273.676H330.404V279.494H330.439C330.785 278.926 331.204 278.501 331.696 278.22C332.188 277.933 332.754 277.789 333.393 277.789C334.406 277.789 335.165 278.094 335.669 278.703C336.179 279.312 336.434 280.229 336.434 281.454V287ZM346.392 282.825H340.028C340.052 283.839 340.318 284.621 340.828 285.172C341.344 285.717 342.064 285.989 342.99 285.989C343.395 285.989 343.799 285.931 344.203 285.813C344.613 285.69 345.018 285.497 345.416 285.233L346.084 286.262C345.574 286.59 345.064 286.83 344.555 286.982C344.045 287.135 343.485 287.211 342.876 287.211C341.517 287.211 340.456 286.807 339.694 285.998C338.933 285.189 338.549 284.062 338.543 282.614C338.537 281.167 338.918 280.001 339.686 279.116C340.459 278.231 341.461 277.789 342.691 277.789C343.863 277.789 344.771 278.173 345.416 278.94C346.066 279.702 346.392 280.76 346.392 282.113V282.825ZM344.915 281.647C344.909 280.815 344.707 280.168 344.309 279.705C343.91 279.236 343.362 279.002 342.665 279.002C341.979 279.002 341.396 279.242 340.916 279.723C340.441 280.197 340.151 280.839 340.046 281.647H344.915ZM360.797 287H359.355V285.576H359.32C359.021 286.121 358.641 286.531 358.178 286.807C357.715 287.076 357.17 287.211 356.543 287.211C355.471 287.211 354.665 286.892 354.126 286.253C353.593 285.614 353.326 284.656 353.326 283.379V278H354.759V283.15C354.759 284.1 354.94 284.812 355.304 285.286C355.667 285.761 356.212 285.998 356.938 285.998C357.642 285.998 358.219 285.74 358.67 285.225C359.127 284.703 359.355 284.023 359.355 283.186V278H360.797V287ZM362.871 286.323L363.557 285.216C363.949 285.474 364.333 285.67 364.708 285.805C365.083 285.934 365.487 285.998 365.921 285.998C366.536 285.998 367.002 285.884 367.318 285.655C367.641 285.427 367.802 285.084 367.802 284.627C367.802 284.258 367.658 283.947 367.371 283.695C367.09 283.438 366.647 283.232 366.044 283.08C364.919 282.793 364.148 282.433 363.732 281.999C363.316 281.56 363.108 281.021 363.108 280.382C363.108 279.644 363.387 279.028 363.943 278.536C364.5 278.038 365.276 277.789 366.272 277.789C366.753 277.789 367.21 277.851 367.644 277.974C368.077 278.097 368.52 278.308 368.971 278.606L368.329 279.696C367.919 279.438 367.55 279.26 367.222 279.16C366.899 279.055 366.571 279.002 366.237 279.002C365.657 279.002 365.215 279.11 364.91 279.327C364.605 279.538 364.453 279.846 364.453 280.25C364.453 280.654 364.608 280.959 364.919 281.164C365.235 281.369 365.742 281.562 366.439 281.744C367.354 281.99 368.036 282.336 368.487 282.781C368.944 283.221 369.173 283.798 369.173 284.513C369.173 285.345 368.877 286.004 368.285 286.49C367.699 286.971 366.894 287.211 365.868 287.211C365.317 287.211 364.787 287.135 364.277 286.982C363.773 286.83 363.305 286.61 362.871 286.323ZM378.595 282.825H372.231C372.255 283.839 372.521 284.621 373.031 285.172C373.547 285.717 374.268 285.989 375.193 285.989C375.598 285.989 376.002 285.931 376.406 285.813C376.816 285.69 377.221 285.497 377.619 285.233L378.287 286.262C377.777 286.59 377.268 286.83 376.758 286.982C376.248 287.135 375.688 287.211 375.079 287.211C373.72 287.211 372.659 286.807 371.897 285.998C371.136 285.189 370.752 284.062 370.746 282.614C370.74 281.167 371.121 280.001 371.889 279.116C372.662 278.231 373.664 277.789 374.895 277.789C376.066 277.789 376.975 278.173 377.619 278.94C378.27 279.702 378.595 280.76 378.595 282.113V282.825ZM377.118 281.647C377.112 280.815 376.91 280.168 376.512 279.705C376.113 279.236 375.565 279.002 374.868 279.002C374.183 279.002 373.6 279.242 373.119 279.723C372.645 280.197 372.354 280.839 372.249 281.647H377.118ZM385.222 279.23C385.11 279.195 385.011 279.172 384.923 279.16C384.835 279.143 384.724 279.134 384.589 279.134C383.856 279.134 383.279 279.447 382.857 280.074C382.436 280.695 382.225 281.475 382.225 282.412V287H380.783V278H382.225V279.784H382.26C382.465 279.151 382.778 278.671 383.2 278.343C383.622 278.009 384.108 277.842 384.659 277.842C384.841 277.842 384.993 277.851 385.116 277.868C385.245 277.886 385.359 277.912 385.459 277.947L385.222 279.23ZM391.137 286.323L391.822 285.216C392.215 285.474 392.599 285.67 392.974 285.805C393.349 285.934 393.753 285.998 394.187 285.998C394.802 285.998 395.268 285.884 395.584 285.655C395.906 285.427 396.067 285.084 396.067 284.627C396.067 284.258 395.924 283.947 395.637 283.695C395.355 283.438 394.913 283.232 394.31 283.08C393.185 282.793 392.414 282.433 391.998 281.999C391.582 281.56 391.374 281.021 391.374 280.382C391.374 279.644 391.652 279.028 392.209 278.536C392.766 278.038 393.542 277.789 394.538 277.789C395.019 277.789 395.476 277.851 395.909 277.974C396.343 278.097 396.785 278.308 397.236 278.606L396.595 279.696C396.185 279.438 395.815 279.26 395.487 279.16C395.165 279.055 394.837 279.002 394.503 279.002C393.923 279.002 393.48 279.11 393.176 279.327C392.871 279.538 392.719 279.846 392.719 280.25C392.719 280.654 392.874 280.959 393.185 281.164C393.501 281.369 394.008 281.562 394.705 281.744C395.619 281.99 396.302 282.336 396.753 282.781C397.21 283.221 397.438 283.798 397.438 284.513C397.438 285.345 397.143 286.004 396.551 286.49C395.965 286.971 395.159 287.211 394.134 287.211C393.583 287.211 393.053 287.135 392.543 286.982C392.039 286.83 391.57 286.61 391.137 286.323ZM406.86 282.825H400.497C400.521 283.839 400.787 284.621 401.297 285.172C401.812 285.717 402.533 285.989 403.459 285.989C403.863 285.989 404.268 285.931 404.672 285.813C405.082 285.69 405.486 285.497 405.885 285.233L406.553 286.262C406.043 286.59 405.533 286.83 405.023 286.982C404.514 287.135 403.954 287.211 403.345 287.211C401.985 287.211 400.925 286.807 400.163 285.998C399.401 285.189 399.018 284.062 399.012 282.614C399.006 281.167 399.387 280.001 400.154 279.116C400.928 278.231 401.93 277.789 403.16 277.789C404.332 277.789 405.24 278.173 405.885 278.94C406.535 279.702 406.86 280.76 406.86 282.113V282.825ZM405.384 281.647C405.378 280.815 405.176 280.168 404.777 279.705C404.379 279.236 403.831 279.002 403.134 279.002C402.448 279.002 401.865 279.242 401.385 279.723C400.91 280.197 400.62 280.839 400.515 281.647H405.384ZM409.049 287V273.676H410.49V287H409.049ZM420.642 282.825H414.278C414.302 283.839 414.568 284.621 415.078 285.172C415.594 285.717 416.314 285.989 417.24 285.989C417.645 285.989 418.049 285.931 418.453 285.813C418.863 285.69 419.268 285.497 419.666 285.233L420.334 286.262C419.824 286.59 419.314 286.83 418.805 286.982C418.295 287.135 417.735 287.211 417.126 287.211C415.767 287.211 414.706 286.807 413.944 285.998C413.183 285.189 412.799 284.062 412.793 282.614C412.787 281.167 413.168 280.001 413.936 279.116C414.709 278.231 415.711 277.789 416.941 277.789C418.113 277.789 419.021 278.173 419.666 278.94C420.316 279.702 420.642 280.76 420.642 282.113V282.825ZM419.165 281.647C419.159 280.815 418.957 280.168 418.559 279.705C418.16 279.236 417.612 279.002 416.915 279.002C416.229 279.002 415.646 279.242 415.166 279.723C414.691 280.197 414.401 280.839 414.296 281.647H419.165ZM429.158 286.464C428.742 286.722 428.326 286.909 427.91 287.026C427.494 287.149 427.04 287.211 426.548 287.211C425.282 287.211 424.242 286.818 423.428 286.033C422.619 285.248 422.215 284.135 422.215 282.693C422.215 281.229 422.622 280.045 423.437 279.143C424.257 278.24 425.382 277.789 426.812 277.789C427.274 277.789 427.714 277.845 428.13 277.956C428.552 278.067 428.977 278.249 429.404 278.501L428.798 279.556C428.464 279.368 428.136 279.23 427.813 279.143C427.491 279.055 427.14 279.011 426.759 279.011C425.769 279.011 425.01 279.342 424.482 280.004C423.955 280.666 423.691 281.507 423.691 282.526C423.691 283.651 423.967 284.51 424.518 285.102C425.074 285.693 425.792 285.989 426.671 285.989C426.958 285.989 427.257 285.945 427.567 285.857C427.884 285.764 428.2 285.62 428.517 285.427L429.158 286.464ZM435.434 286.895C435.188 286.994 434.944 287.067 434.704 287.114C434.47 287.167 434.203 287.193 433.904 287.193C433.189 287.193 432.627 286.985 432.217 286.569C431.812 286.147 431.61 285.526 431.61 284.706V279.23H430.063V278H431.61V275.803L433.052 275.337V278H435.319V279.23H433.052V284.539C433.052 285.055 433.143 285.427 433.324 285.655C433.512 285.884 433.79 285.998 434.159 285.998C434.335 285.998 434.505 285.978 434.669 285.937C434.833 285.896 434.971 285.849 435.082 285.796L435.434 286.895ZM446.481 274.854C446.317 274.801 446.168 274.763 446.033 274.739C445.904 274.716 445.767 274.704 445.62 274.704C445.128 274.704 444.762 274.836 444.521 275.1C444.281 275.363 444.161 275.75 444.161 276.26V278H446.271V279.23H444.161V287H442.729V279.23H441.19V278H442.729V276.189C442.729 275.34 442.989 274.678 443.511 274.203C444.032 273.723 444.747 273.482 445.655 273.482C445.878 273.482 446.08 273.5 446.262 273.535C446.443 273.564 446.631 273.611 446.824 273.676L446.481 274.854ZM452.265 279.23C452.153 279.195 452.054 279.172 451.966 279.16C451.878 279.143 451.767 279.134 451.632 279.134C450.899 279.134 450.322 279.447 449.9 280.074C449.479 280.695 449.268 281.475 449.268 282.412V287H447.826V278H449.268V279.784H449.303C449.508 279.151 449.821 278.671 450.243 278.343C450.665 278.009 451.151 277.842 451.702 277.842C451.884 277.842 452.036 277.851 452.159 277.868C452.288 277.886 452.402 277.912 452.502 277.947L452.265 279.23ZM457.846 287.211C456.516 287.211 455.452 286.792 454.655 285.954C453.864 285.11 453.469 283.994 453.469 282.605C453.469 281.1 453.879 279.922 454.699 279.072C455.52 278.223 456.639 277.795 458.057 277.789C459.398 277.783 460.444 278.196 461.194 279.028C461.95 279.86 462.328 281.006 462.328 282.465C462.328 283.906 461.921 285.058 461.106 285.919C460.298 286.78 459.211 287.211 457.846 287.211ZM457.951 285.998C458.883 285.998 459.598 285.696 460.096 285.093C460.6 284.483 460.852 283.625 460.852 282.518C460.852 281.387 460.6 280.52 460.096 279.916C459.592 279.307 458.877 279.002 457.951 279.002C457.025 279.002 456.293 279.318 455.754 279.951C455.215 280.584 454.945 281.451 454.945 282.553C454.945 283.619 455.218 284.46 455.763 285.075C456.308 285.69 457.037 285.998 457.951 285.998ZM477.41 287H475.969V281.832C475.969 280.836 475.813 280.115 475.503 279.67C475.198 279.225 474.683 279.002 473.956 279.002C473.341 279.002 472.816 279.283 472.383 279.846C471.955 280.408 471.741 281.082 471.741 281.867V287H470.3V281.656C470.3 280.771 470.13 280.109 469.79 279.67C469.45 279.225 468.938 279.002 468.252 279.002C467.619 279.002 467.098 279.269 466.688 279.802C466.277 280.329 466.072 281.018 466.072 281.867V287H464.631V278H466.072V279.424H466.107C466.43 278.879 466.822 278.472 467.285 278.202C467.754 277.927 468.293 277.789 468.902 277.789C469.518 277.789 470.054 277.962 470.511 278.308C470.968 278.647 471.281 279.096 471.451 279.652C471.785 279.031 472.201 278.565 472.699 278.255C473.197 277.944 473.777 277.789 474.439 277.789C475.43 277.789 476.171 278.094 476.663 278.703C477.161 279.312 477.41 280.229 477.41 281.454V287ZM491.446 287H490.005V285.594H489.97C489.659 286.133 489.275 286.537 488.818 286.807C488.367 287.076 487.84 287.211 487.236 287.211C486.393 287.211 485.71 286.965 485.188 286.473C484.667 285.98 484.406 285.327 484.406 284.513C484.406 283.745 484.67 283.109 485.197 282.605C485.725 282.102 486.472 281.779 487.438 281.639L490.005 281.296V281.094C490.005 280.338 489.829 279.802 489.478 279.485C489.126 279.163 488.657 279.002 488.071 279.002C487.603 279.002 487.151 279.09 486.718 279.266C486.284 279.441 485.877 279.711 485.496 280.074L484.652 279.204C485.156 278.718 485.692 278.36 486.261 278.132C486.829 277.903 487.462 277.789 488.159 277.789C489.249 277.789 490.069 278.07 490.62 278.633C491.171 279.189 491.446 280.027 491.446 281.146V287ZM490.005 283.344V282.447L487.834 282.746C487.172 282.84 486.674 283.007 486.34 283.247C486.006 283.487 485.839 283.865 485.839 284.381C485.839 284.92 485.994 285.333 486.305 285.62C486.621 285.901 487.005 286.042 487.456 286.042C488.235 286.042 488.854 285.787 489.311 285.277C489.773 284.768 490.005 284.123 490.005 283.344ZM503.61 279.23C503.499 279.195 503.399 279.172 503.312 279.16C503.224 279.143 503.112 279.134 502.978 279.134C502.245 279.134 501.668 279.447 501.246 280.074C500.824 280.695 500.613 281.475 500.613 282.412V287H499.172V278H500.613V279.784H500.648C500.854 279.151 501.167 278.671 501.589 278.343C502.011 278.009 502.497 277.842 503.048 277.842C503.229 277.842 503.382 277.851 503.505 277.868C503.634 277.886 503.748 277.912 503.848 277.947L503.61 279.23ZM511.802 287H510.36V285.594H510.325C510.015 286.133 509.631 286.537 509.174 286.807C508.723 287.076 508.195 287.211 507.592 287.211C506.748 287.211 506.065 286.965 505.544 286.473C505.022 285.98 504.762 285.327 504.762 284.513C504.762 283.745 505.025 283.109 505.553 282.605C506.08 282.102 506.827 281.779 507.794 281.639L510.36 281.296V281.094C510.36 280.338 510.185 279.802 509.833 279.485C509.481 279.163 509.013 279.002 508.427 279.002C507.958 279.002 507.507 279.09 507.073 279.266C506.64 279.441 506.232 279.711 505.852 280.074L505.008 279.204C505.512 278.718 506.048 278.36 506.616 278.132C507.185 277.903 507.817 277.789 508.515 277.789C509.604 277.789 510.425 278.07 510.976 278.633C511.526 279.189 511.802 280.027 511.802 281.146V287ZM510.36 283.344V282.447L508.189 282.746C507.527 282.84 507.029 283.007 506.695 283.247C506.361 283.487 506.194 283.865 506.194 284.381C506.194 284.92 506.35 285.333 506.66 285.62C506.977 285.901 507.36 286.042 507.812 286.042C508.591 286.042 509.209 285.787 509.666 285.277C510.129 284.768 510.36 284.123 510.36 283.344ZM522.059 287H520.617V281.867C520.617 280.912 520.441 280.197 520.09 279.723C519.744 279.242 519.223 279.002 518.525 279.002C517.805 279.002 517.207 279.274 516.732 279.819C516.264 280.358 516.029 281.041 516.029 281.867V287H514.588V278H516.029V279.494H516.064C516.404 278.926 516.82 278.501 517.312 278.22C517.805 277.933 518.373 277.789 519.018 277.789C520.002 277.789 520.755 278.108 521.276 278.747C521.798 279.38 522.059 280.297 522.059 281.498V287ZM532.465 286.517C532.465 288.093 532.061 289.273 531.252 290.059C530.449 290.844 529.348 291.236 527.947 291.236C527.332 291.236 526.758 291.178 526.225 291.061C525.697 290.943 525.152 290.753 524.59 290.489L525.117 289.382C525.586 289.599 526.043 289.757 526.488 289.856C526.939 289.956 527.42 290.006 527.93 290.006C528.891 290.006 529.646 289.733 530.197 289.188C530.748 288.644 531.023 287.817 531.023 286.71V285.488H530.988C530.648 286.062 530.221 286.493 529.705 286.78C529.189 287.067 528.586 287.211 527.895 287.211C526.775 287.211 525.873 286.812 525.188 286.016C524.508 285.213 524.168 284.138 524.168 282.79C524.168 281.313 524.543 280.112 525.293 279.187C526.049 278.255 527.048 277.789 528.29 277.789C528.899 277.789 529.427 277.912 529.872 278.158C530.323 278.398 530.695 278.762 530.988 279.248H531.023V278H532.465V286.517ZM531.023 282.931V281.604C531.023 280.889 530.78 280.276 530.294 279.767C529.813 279.257 529.213 279.002 528.492 279.002C527.607 279.002 526.91 279.307 526.4 279.916C525.896 280.525 525.645 281.451 525.645 282.693C525.645 283.76 525.879 284.577 526.348 285.146C526.816 285.714 527.464 285.998 528.29 285.998C529.099 285.998 529.755 285.711 530.259 285.137C530.769 284.562 531.023 283.827 531.023 282.931ZM542.616 282.825H536.253C536.276 283.839 536.543 284.621 537.053 285.172C537.568 285.717 538.289 285.989 539.215 285.989C539.619 285.989 540.023 285.931 540.428 285.813C540.838 285.69 541.242 285.497 541.641 285.233L542.309 286.262C541.799 286.59 541.289 286.83 540.779 286.982C540.27 287.135 539.71 287.211 539.101 287.211C537.741 287.211 536.681 286.807 535.919 285.998C535.157 285.189 534.773 284.062 534.768 282.614C534.762 281.167 535.143 280.001 535.91 279.116C536.684 278.231 537.686 277.789 538.916 277.789C540.088 277.789 540.996 278.173 541.641 278.94C542.291 279.702 542.616 280.76 542.616 282.113V282.825ZM541.14 281.647C541.134 280.815 540.932 280.168 540.533 279.705C540.135 279.236 539.587 279.002 538.89 279.002C538.204 279.002 537.621 279.242 537.141 279.723C536.666 280.197 536.376 280.839 536.271 281.647H541.14ZM553.506 287.211C552.176 287.211 551.112 286.792 550.315 285.954C549.524 285.11 549.129 283.994 549.129 282.605C549.129 281.1 549.539 279.922 550.359 279.072C551.18 278.223 552.299 277.795 553.717 277.789C555.059 277.783 556.104 278.196 556.854 279.028C557.61 279.86 557.988 281.006 557.988 282.465C557.988 283.906 557.581 285.058 556.767 285.919C555.958 286.78 554.871 287.211 553.506 287.211ZM553.611 285.998C554.543 285.998 555.258 285.696 555.756 285.093C556.26 284.483 556.512 283.625 556.512 282.518C556.512 281.387 556.26 280.52 555.756 279.916C555.252 279.307 554.537 279.002 553.611 279.002C552.686 279.002 551.953 279.318 551.414 279.951C550.875 280.584 550.605 281.451 550.605 282.553C550.605 283.619 550.878 284.46 551.423 285.075C551.968 285.69 552.697 285.998 553.611 285.998ZM564.589 274.854C564.425 274.801 564.275 274.763 564.141 274.739C564.012 274.716 563.874 274.704 563.728 274.704C563.235 274.704 562.869 274.836 562.629 275.1C562.389 275.363 562.269 275.75 562.269 276.26V278H564.378V279.23H562.269V287H560.836V279.23H559.298V278H560.836V276.189C560.836 275.34 561.097 274.678 561.618 274.203C562.14 273.723 562.854 273.482 563.763 273.482C563.985 273.482 564.188 273.5 564.369 273.535C564.551 273.564 564.738 273.611 564.932 273.676L564.589 274.854ZM577.948 278L574.362 287H572.947L569.537 278H571.119L573.404 284.539C573.486 284.779 573.554 285.005 573.606 285.216C573.659 285.421 573.697 285.614 573.721 285.796H573.756C573.785 285.567 573.823 285.354 573.87 285.154C573.917 284.949 573.973 284.756 574.037 284.574L576.428 278H577.948ZM585.876 287H584.435V285.594H584.399C584.089 286.133 583.705 286.537 583.248 286.807C582.797 287.076 582.27 287.211 581.666 287.211C580.822 287.211 580.14 286.965 579.618 286.473C579.097 285.98 578.836 285.327 578.836 284.513C578.836 283.745 579.1 283.109 579.627 282.605C580.154 282.102 580.901 281.779 581.868 281.639L584.435 281.296V281.094C584.435 280.338 584.259 279.802 583.907 279.485C583.556 279.163 583.087 279.002 582.501 279.002C582.032 279.002 581.581 279.09 581.147 279.266C580.714 279.441 580.307 279.711 579.926 280.074L579.082 279.204C579.586 278.718 580.122 278.36 580.69 278.132C581.259 277.903 581.892 277.789 582.589 277.789C583.679 277.789 584.499 278.07 585.05 278.633C585.601 279.189 585.876 280.027 585.876 281.146V287ZM584.435 283.344V282.447L582.264 282.746C581.602 282.84 581.104 283.007 580.77 283.247C580.436 283.487 580.269 283.865 580.269 284.381C580.269 284.92 580.424 285.333 580.734 285.62C581.051 285.901 581.435 286.042 581.886 286.042C582.665 286.042 583.283 285.787 583.74 285.277C584.203 284.768 584.435 284.123 584.435 283.344ZM588.662 287V273.676H590.104V287H588.662ZM600.299 287H598.857V285.576H598.822C598.523 286.121 598.143 286.531 597.68 286.807C597.217 287.076 596.672 287.211 596.045 287.211C594.973 287.211 594.167 286.892 593.628 286.253C593.095 285.614 592.828 284.656 592.828 283.379V278H594.261V283.15C594.261 284.1 594.442 284.812 594.806 285.286C595.169 285.761 595.714 285.998 596.44 285.998C597.144 285.998 597.721 285.74 598.172 285.225C598.629 284.703 598.857 284.023 598.857 283.186V278H600.299V287ZM610.45 282.825H604.087C604.11 283.839 604.377 284.621 604.887 285.172C605.402 285.717 606.123 285.989 607.049 285.989C607.453 285.989 607.857 285.931 608.262 285.813C608.672 285.69 609.076 285.497 609.475 285.233L610.143 286.262C609.633 286.59 609.123 286.83 608.613 286.982C608.104 287.135 607.544 287.211 606.935 287.211C605.575 287.211 604.515 286.807 603.753 285.998C602.991 285.189 602.607 284.062 602.602 282.614C602.596 281.167 602.977 280.001 603.744 279.116C604.518 278.231 605.52 277.789 606.75 277.789C607.922 277.789 608.83 278.173 609.475 278.94C610.125 279.702 610.45 280.76 610.45 282.113V282.825ZM608.974 281.647C608.968 280.815 608.766 280.168 608.367 279.705C607.969 279.236 607.421 279.002 606.724 279.002C606.038 279.002 605.455 279.242 604.975 279.723C604.5 280.197 604.21 280.839 604.104 281.647H608.974ZM611.795 286.323L612.48 285.216C612.873 285.474 613.257 285.67 613.632 285.805C614.007 285.934 614.411 285.998 614.845 285.998C615.46 285.998 615.926 285.884 616.242 285.655C616.564 285.427 616.726 285.084 616.726 284.627C616.726 284.258 616.582 283.947 616.295 283.695C616.014 283.438 615.571 283.232 614.968 283.08C613.843 282.793 613.072 282.433 612.656 281.999C612.24 281.56 612.032 281.021 612.032 280.382C612.032 279.644 612.311 279.028 612.867 278.536C613.424 278.038 614.2 277.789 615.196 277.789C615.677 277.789 616.134 277.851 616.567 277.974C617.001 278.097 617.443 278.308 617.895 278.606L617.253 279.696C616.843 279.438 616.474 279.26 616.146 279.16C615.823 279.055 615.495 279.002 615.161 279.002C614.581 279.002 614.139 279.11 613.834 279.327C613.529 279.538 613.377 279.846 613.377 280.25C613.377 280.654 613.532 280.959 613.843 281.164C614.159 281.369 614.666 281.562 615.363 281.744C616.277 281.99 616.96 282.336 617.411 282.781C617.868 283.221 618.097 283.798 618.097 284.513C618.097 285.345 617.801 286.004 617.209 286.49C616.623 286.971 615.817 287.211 614.792 287.211C614.241 287.211 613.711 287.135 613.201 286.982C612.697 286.83 612.229 286.61 611.795 286.323ZM626.701 285.84H626.666V287H625.225V273.676H626.666V279.582H626.701C627.059 278.984 627.495 278.536 628.011 278.237C628.532 277.938 629.133 277.789 629.812 277.789C630.967 277.789 631.869 278.193 632.52 279.002C633.176 279.805 633.504 280.883 633.504 282.236C633.504 283.742 633.138 284.949 632.405 285.857C631.673 286.76 630.671 287.211 629.399 287.211C628.808 287.211 628.286 287.097 627.835 286.868C627.384 286.64 627.006 286.297 626.701 285.84ZM626.666 282.069V283.326C626.666 284.07 626.906 284.703 627.387 285.225C627.873 285.74 628.488 285.998 629.232 285.998C630.105 285.998 630.788 285.664 631.28 284.996C631.778 284.328 632.027 283.399 632.027 282.21C632.027 281.208 631.796 280.423 631.333 279.854C630.87 279.286 630.243 279.002 629.452 279.002C628.614 279.002 627.94 279.295 627.431 279.881C626.921 280.461 626.666 281.19 626.666 282.069ZM642.97 278L638.725 288.714C638.391 289.558 637.972 290.188 637.468 290.604C636.964 291.025 636.372 291.236 635.692 291.236C635.517 291.236 635.355 291.225 635.209 291.201C635.062 291.184 634.922 291.157 634.787 291.122L635.068 289.892C635.174 289.927 635.271 289.95 635.358 289.962C635.452 289.979 635.543 289.988 635.631 289.988C636.018 289.988 636.337 289.889 636.589 289.689C636.847 289.49 637.052 289.209 637.204 288.846L637.986 286.982L634.471 278H636.07L638.505 284.926C638.517 284.967 638.537 285.046 638.566 285.163C638.602 285.28 638.643 285.43 638.689 285.611H638.742C638.76 285.541 638.78 285.45 638.804 285.339C638.833 285.228 638.871 285.096 638.918 284.943L641.476 278H642.97ZM110.238 311H108.797V305.832C108.797 304.836 108.642 304.115 108.331 303.67C108.026 303.225 107.511 303.002 106.784 303.002C106.169 303.002 105.645 303.283 105.211 303.846C104.783 304.408 104.569 305.082 104.569 305.867V311H103.128V305.656C103.128 304.771 102.958 304.109 102.618 303.67C102.278 303.225 101.766 303.002 101.08 303.002C100.447 303.002 99.9258 303.269 99.5156 303.802C99.1055 304.329 98.9004 305.018 98.9004 305.867V311H97.459V302H98.9004V303.424H98.9355C99.2578 302.879 99.6504 302.472 100.113 302.202C100.582 301.927 101.121 301.789 101.73 301.789C102.346 301.789 102.882 301.962 103.339 302.308C103.796 302.647 104.109 303.096 104.279 303.652C104.613 303.031 105.029 302.565 105.527 302.255C106.025 301.944 106.605 301.789 107.268 301.789C108.258 301.789 108.999 302.094 109.491 302.703C109.989 303.312 110.238 304.229 110.238 305.454V311ZM116.725 311.211C115.395 311.211 114.331 310.792 113.534 309.954C112.743 309.11 112.348 307.994 112.348 306.605C112.348 305.1 112.758 303.922 113.578 303.072C114.398 302.223 115.518 301.795 116.936 301.789C118.277 301.783 119.323 302.196 120.073 303.028C120.829 303.86 121.207 305.006 121.207 306.465C121.207 307.906 120.8 309.058 119.985 309.919C119.177 310.78 118.09 311.211 116.725 311.211ZM116.83 309.998C117.762 309.998 118.477 309.696 118.975 309.093C119.479 308.483 119.73 307.625 119.73 306.518C119.73 305.387 119.479 304.52 118.975 303.916C118.471 303.307 117.756 303.002 116.83 303.002C115.904 303.002 115.172 303.318 114.633 303.951C114.094 304.584 113.824 305.451 113.824 306.553C113.824 307.619 114.097 308.46 114.642 309.075C115.187 309.69 115.916 309.998 116.83 309.998ZM130.585 302L126.999 311H125.584L122.174 302H123.756L126.041 308.539C126.123 308.779 126.19 309.005 126.243 309.216C126.296 309.421 126.334 309.614 126.357 309.796H126.393C126.422 309.567 126.46 309.354 126.507 309.154C126.554 308.949 126.609 308.756 126.674 308.574L129.064 302H130.585ZM132.879 299.847C132.586 299.847 132.34 299.75 132.141 299.557C131.941 299.357 131.842 299.114 131.842 298.827C131.842 298.54 131.941 298.3 132.141 298.106C132.34 297.907 132.586 297.808 132.879 297.808C133.172 297.808 133.418 297.907 133.617 298.106C133.816 298.3 133.916 298.54 133.916 298.827C133.916 299.114 133.816 299.357 133.617 299.557C133.418 299.75 133.172 299.847 132.879 299.847ZM133.582 311H132.141V302H133.582V311ZM143.971 311H142.529V305.867C142.529 304.912 142.354 304.197 142.002 303.723C141.656 303.242 141.135 303.002 140.438 303.002C139.717 303.002 139.119 303.274 138.645 303.819C138.176 304.358 137.941 305.041 137.941 305.867V311H136.5V302H137.941V303.494H137.977C138.316 302.926 138.732 302.501 139.225 302.22C139.717 301.933 140.285 301.789 140.93 301.789C141.914 301.789 142.667 302.108 143.188 302.747C143.71 303.38 143.971 304.297 143.971 305.498V311ZM154.377 310.517C154.377 312.093 153.973 313.273 153.164 314.059C152.361 314.844 151.26 315.236 149.859 315.236C149.244 315.236 148.67 315.178 148.137 315.061C147.609 314.943 147.064 314.753 146.502 314.489L147.029 313.382C147.498 313.599 147.955 313.757 148.4 313.856C148.852 313.956 149.332 314.006 149.842 314.006C150.803 314.006 151.559 313.733 152.109 313.188C152.66 312.644 152.936 311.817 152.936 310.71V309.488H152.9C152.561 310.062 152.133 310.493 151.617 310.78C151.102 311.067 150.498 311.211 149.807 311.211C148.688 311.211 147.785 310.812 147.1 310.016C146.42 309.213 146.08 308.138 146.08 306.79C146.08 305.313 146.455 304.112 147.205 303.187C147.961 302.255 148.96 301.789 150.202 301.789C150.812 301.789 151.339 301.912 151.784 302.158C152.235 302.398 152.607 302.762 152.9 303.248H152.936V302H154.377V310.517ZM152.936 306.931V305.604C152.936 304.889 152.692 304.276 152.206 303.767C151.726 303.257 151.125 303.002 150.404 303.002C149.52 303.002 148.822 303.307 148.312 303.916C147.809 304.525 147.557 305.451 147.557 306.693C147.557 307.76 147.791 308.577 148.26 309.146C148.729 309.714 149.376 309.998 150.202 309.998C151.011 309.998 151.667 309.711 152.171 309.137C152.681 308.562 152.936 307.827 152.936 306.931ZM168.606 311H167.165V309.594H167.13C166.819 310.133 166.436 310.537 165.979 310.807C165.527 311.076 165 311.211 164.396 311.211C163.553 311.211 162.87 310.965 162.349 310.473C161.827 309.98 161.566 309.327 161.566 308.513C161.566 307.745 161.83 307.109 162.357 306.605C162.885 306.102 163.632 305.779 164.599 305.639L167.165 305.296V305.094C167.165 304.338 166.989 303.802 166.638 303.485C166.286 303.163 165.817 303.002 165.231 303.002C164.763 303.002 164.312 303.09 163.878 303.266C163.444 303.441 163.037 303.711 162.656 304.074L161.812 303.204C162.316 302.718 162.853 302.36 163.421 302.132C163.989 301.903 164.622 301.789 165.319 301.789C166.409 301.789 167.229 302.07 167.78 302.633C168.331 303.189 168.606 304.027 168.606 305.146V311ZM167.165 307.344V306.447L164.994 306.746C164.332 306.84 163.834 307.007 163.5 307.247C163.166 307.487 162.999 307.865 162.999 308.381C162.999 308.92 163.154 309.333 163.465 309.62C163.781 309.901 164.165 310.042 164.616 310.042C165.396 310.042 166.014 309.787 166.471 309.277C166.934 308.768 167.165 308.123 167.165 307.344ZM180.621 310.895C180.375 310.994 180.132 311.067 179.892 311.114C179.657 311.167 179.391 311.193 179.092 311.193C178.377 311.193 177.814 310.985 177.404 310.569C177 310.147 176.798 309.526 176.798 308.706V303.23H175.251V302H176.798V299.803L178.239 299.337V302H180.507V303.23H178.239V308.539C178.239 309.055 178.33 309.427 178.512 309.655C178.699 309.884 178.978 309.998 179.347 309.998C179.522 309.998 179.692 309.978 179.856 309.937C180.021 309.896 180.158 309.849 180.27 309.796L180.621 310.895ZM189.902 311H188.461V305.814C188.461 304.877 188.285 304.174 187.934 303.705C187.588 303.236 187.066 303.002 186.369 303.002C185.666 303.002 185.074 303.274 184.594 303.819C184.113 304.358 183.873 305.053 183.873 305.902V311H182.432V297.676H183.873V303.494H183.908C184.254 302.926 184.673 302.501 185.165 302.22C185.657 301.933 186.223 301.789 186.861 301.789C187.875 301.789 188.634 302.094 189.138 302.703C189.647 303.312 189.902 304.229 189.902 305.454V311ZM199.904 311H198.463V309.576H198.428C198.129 310.121 197.748 310.531 197.285 310.807C196.822 311.076 196.277 311.211 195.65 311.211C194.578 311.211 193.772 310.892 193.233 310.253C192.7 309.614 192.434 308.656 192.434 307.379V302H193.866V307.15C193.866 308.1 194.048 308.812 194.411 309.286C194.774 309.761 195.319 309.998 196.046 309.998C196.749 309.998 197.326 309.74 197.777 309.225C198.234 308.703 198.463 308.023 198.463 307.186V302H199.904V311ZM215.602 311H214.16V305.832C214.16 304.836 214.005 304.115 213.694 303.67C213.39 303.225 212.874 303.002 212.147 303.002C211.532 303.002 211.008 303.283 210.574 303.846C210.146 304.408 209.933 305.082 209.933 305.867V311H208.491V305.656C208.491 304.771 208.321 304.109 207.981 303.67C207.642 303.225 207.129 303.002 206.443 303.002C205.811 303.002 205.289 303.269 204.879 303.802C204.469 304.329 204.264 305.018 204.264 305.867V311H202.822V302H204.264V303.424H204.299C204.621 302.879 205.014 302.472 205.477 302.202C205.945 301.927 206.484 301.789 207.094 301.789C207.709 301.789 208.245 301.962 208.702 302.308C209.159 302.647 209.473 303.096 209.643 303.652C209.977 303.031 210.393 302.565 210.891 302.255C211.389 301.944 211.969 301.789 212.631 301.789C213.621 301.789 214.362 302.094 214.854 302.703C215.353 303.312 215.602 304.229 215.602 305.454V311ZM219.803 309.84H219.768V311H218.326V297.676H219.768V303.582H219.803C220.16 302.984 220.597 302.536 221.112 302.237C221.634 301.938 222.234 301.789 222.914 301.789C224.068 301.789 224.971 302.193 225.621 303.002C226.277 303.805 226.605 304.883 226.605 306.236C226.605 307.742 226.239 308.949 225.507 309.857C224.774 310.76 223.772 311.211 222.501 311.211C221.909 311.211 221.388 311.097 220.937 310.868C220.485 310.64 220.107 310.297 219.803 309.84ZM219.768 306.069V307.326C219.768 308.07 220.008 308.703 220.488 309.225C220.975 309.74 221.59 309.998 222.334 309.998C223.207 309.998 223.89 309.664 224.382 308.996C224.88 308.328 225.129 307.399 225.129 306.21C225.129 305.208 224.897 304.423 224.435 303.854C223.972 303.286 223.345 303.002 222.554 303.002C221.716 303.002 221.042 303.295 220.532 303.881C220.022 304.461 219.768 305.19 219.768 306.069ZM240.176 310.464C239.76 310.722 239.344 310.909 238.928 311.026C238.512 311.149 238.058 311.211 237.565 311.211C236.3 311.211 235.26 310.818 234.445 310.033C233.637 309.248 233.232 308.135 233.232 306.693C233.232 305.229 233.64 304.045 234.454 303.143C235.274 302.24 236.399 301.789 237.829 301.789C238.292 301.789 238.731 301.845 239.147 301.956C239.569 302.067 239.994 302.249 240.422 302.501L239.815 303.556C239.481 303.368 239.153 303.23 238.831 303.143C238.509 303.055 238.157 303.011 237.776 303.011C236.786 303.011 236.027 303.342 235.5 304.004C234.973 304.666 234.709 305.507 234.709 306.526C234.709 307.651 234.984 308.51 235.535 309.102C236.092 309.693 236.81 309.989 237.688 309.989C237.976 309.989 238.274 309.945 238.585 309.857C238.901 309.764 239.218 309.62 239.534 309.427L240.176 310.464ZM245.924 311.211C244.594 311.211 243.53 310.792 242.733 309.954C241.942 309.11 241.547 307.994 241.547 306.605C241.547 305.1 241.957 303.922 242.777 303.072C243.598 302.223 244.717 301.795 246.135 301.789C247.477 301.783 248.522 302.196 249.272 303.028C250.028 303.86 250.406 305.006 250.406 306.465C250.406 307.906 249.999 309.058 249.185 309.919C248.376 310.78 247.289 311.211 245.924 311.211ZM246.029 309.998C246.961 309.998 247.676 309.696 248.174 309.093C248.678 308.483 248.93 307.625 248.93 306.518C248.93 305.387 248.678 304.52 248.174 303.916C247.67 303.307 246.955 303.002 246.029 303.002C245.104 303.002 244.371 303.318 243.832 303.951C243.293 304.584 243.023 305.451 243.023 306.553C243.023 307.619 243.296 308.46 243.841 309.075C244.386 309.69 245.115 309.998 246.029 309.998ZM260.18 311H258.738V305.867C258.738 304.912 258.562 304.197 258.211 303.723C257.865 303.242 257.344 303.002 256.646 303.002C255.926 303.002 255.328 303.274 254.854 303.819C254.385 304.358 254.15 305.041 254.15 305.867V311H252.709V302H254.15V303.494H254.186C254.525 302.926 254.941 302.501 255.434 302.22C255.926 301.933 256.494 301.789 257.139 301.789C258.123 301.789 258.876 302.108 259.397 302.747C259.919 303.38 260.18 304.297 260.18 305.498V311ZM267.193 310.895C266.947 310.994 266.704 311.067 266.464 311.114C266.229 311.167 265.963 311.193 265.664 311.193C264.949 311.193 264.387 310.985 263.977 310.569C263.572 310.147 263.37 309.526 263.37 308.706V303.23H261.823V302H263.37V299.803L264.812 299.337V302H267.079V303.23H264.812V308.539C264.812 309.055 264.902 309.427 265.084 309.655C265.271 309.884 265.55 309.998 265.919 309.998C266.095 309.998 266.265 309.978 266.429 309.937C266.593 309.896 266.73 309.849 266.842 309.796L267.193 310.895ZM273.442 303.23C273.331 303.195 273.231 303.172 273.144 303.16C273.056 303.143 272.944 303.134 272.81 303.134C272.077 303.134 271.5 303.447 271.078 304.074C270.656 304.695 270.445 305.475 270.445 306.412V311H269.004V302H270.445V303.784H270.48C270.686 303.151 270.999 302.671 271.421 302.343C271.843 302.009 272.329 301.842 272.88 301.842C273.062 301.842 273.214 301.851 273.337 301.868C273.466 301.886 273.58 301.912 273.68 301.947L273.442 303.23ZM279.023 311.211C277.693 311.211 276.63 310.792 275.833 309.954C275.042 309.11 274.646 307.994 274.646 306.605C274.646 305.1 275.057 303.922 275.877 303.072C276.697 302.223 277.816 301.795 279.234 301.789C280.576 301.783 281.622 302.196 282.372 303.028C283.128 303.86 283.506 305.006 283.506 306.465C283.506 307.906 283.099 309.058 282.284 309.919C281.476 310.78 280.389 311.211 279.023 311.211ZM279.129 309.998C280.061 309.998 280.775 309.696 281.273 309.093C281.777 308.483 282.029 307.625 282.029 306.518C282.029 305.387 281.777 304.52 281.273 303.916C280.77 303.307 280.055 303.002 279.129 303.002C278.203 303.002 277.471 303.318 276.932 303.951C276.393 304.584 276.123 305.451 276.123 306.553C276.123 307.619 276.396 308.46 276.94 309.075C277.485 309.69 278.215 309.998 279.129 309.998ZM285.809 311V297.676H287.25V311H285.809ZM301.479 311H300.038V309.594H300.003C299.692 310.133 299.309 310.537 298.852 310.807C298.4 311.076 297.873 311.211 297.27 311.211C296.426 311.211 295.743 310.965 295.222 310.473C294.7 309.98 294.439 309.327 294.439 308.513C294.439 307.745 294.703 307.109 295.23 306.605C295.758 306.102 296.505 305.779 297.472 305.639L300.038 305.296V305.094C300.038 304.338 299.862 303.802 299.511 303.485C299.159 303.163 298.69 303.002 298.104 303.002C297.636 303.002 297.185 303.09 296.751 303.266C296.317 303.441 295.91 303.711 295.529 304.074L294.686 303.204C295.189 302.718 295.726 302.36 296.294 302.132C296.862 301.903 297.495 301.789 298.192 301.789C299.282 301.789 300.103 302.07 300.653 302.633C301.204 303.189 301.479 304.027 301.479 305.146V311ZM300.038 307.344V306.447L297.867 306.746C297.205 306.84 296.707 307.007 296.373 307.247C296.039 307.487 295.872 307.865 295.872 308.381C295.872 308.92 296.027 309.333 296.338 309.62C296.654 309.901 297.038 310.042 297.489 310.042C298.269 310.042 298.887 309.787 299.344 309.277C299.807 308.768 300.038 308.123 300.038 307.344ZM304.266 311V297.676H305.707V311H304.266ZM312.387 311.211C311.057 311.211 309.993 310.792 309.196 309.954C308.405 309.11 308.01 307.994 308.01 306.605C308.01 305.1 308.42 303.922 309.24 303.072C310.061 302.223 311.18 301.795 312.598 301.789C313.939 301.783 314.985 302.196 315.735 303.028C316.491 303.86 316.869 305.006 316.869 306.465C316.869 307.906 316.462 309.058 315.647 309.919C314.839 310.78 313.752 311.211 312.387 311.211ZM312.492 309.998C313.424 309.998 314.139 309.696 314.637 309.093C315.141 308.483 315.393 307.625 315.393 306.518C315.393 305.387 315.141 304.52 314.637 303.916C314.133 303.307 313.418 303.002 312.492 303.002C311.566 303.002 310.834 303.318 310.295 303.951C309.756 304.584 309.486 305.451 309.486 306.553C309.486 307.619 309.759 308.46 310.304 309.075C310.849 309.69 311.578 309.998 312.492 309.998ZM326.643 311H325.201V305.867C325.201 304.912 325.025 304.197 324.674 303.723C324.328 303.242 323.807 303.002 323.109 303.002C322.389 303.002 321.791 303.274 321.316 303.819C320.848 304.358 320.613 305.041 320.613 305.867V311H319.172V302H320.613V303.494H320.648C320.988 302.926 321.404 302.501 321.896 302.22C322.389 301.933 322.957 301.789 323.602 301.789C324.586 301.789 325.339 302.108 325.86 302.747C326.382 303.38 326.643 304.297 326.643 305.498V311ZM337.049 310.517C337.049 312.093 336.645 313.273 335.836 314.059C335.033 314.844 333.932 315.236 332.531 315.236C331.916 315.236 331.342 315.178 330.809 315.061C330.281 314.943 329.736 314.753 329.174 314.489L329.701 313.382C330.17 313.599 330.627 313.757 331.072 313.856C331.523 313.956 332.004 314.006 332.514 314.006C333.475 314.006 334.23 313.733 334.781 313.188C335.332 312.644 335.607 311.817 335.607 310.71V309.488H335.572C335.232 310.062 334.805 310.493 334.289 310.78C333.773 311.067 333.17 311.211 332.479 311.211C331.359 311.211 330.457 310.812 329.771 310.016C329.092 309.213 328.752 308.138 328.752 306.79C328.752 305.313 329.127 304.112 329.877 303.187C330.633 302.255 331.632 301.789 332.874 301.789C333.483 301.789 334.011 301.912 334.456 302.158C334.907 302.398 335.279 302.762 335.572 303.248H335.607V302H337.049V310.517ZM335.607 306.931V305.604C335.607 304.889 335.364 304.276 334.878 303.767C334.397 303.257 333.797 303.002 333.076 303.002C332.191 303.002 331.494 303.307 330.984 303.916C330.48 304.525 330.229 305.451 330.229 306.693C330.229 307.76 330.463 308.577 330.932 309.146C331.4 309.714 332.048 309.998 332.874 309.998C333.683 309.998 334.339 309.711 334.843 309.137C335.353 308.562 335.607 307.827 335.607 306.931ZM351.278 311H349.837V309.594H349.802C349.491 310.133 349.107 310.537 348.65 310.807C348.199 311.076 347.672 311.211 347.068 311.211C346.225 311.211 345.542 310.965 345.021 310.473C344.499 309.98 344.238 309.327 344.238 308.513C344.238 307.745 344.502 307.109 345.029 306.605C345.557 306.102 346.304 305.779 347.271 305.639L349.837 305.296V305.094C349.837 304.338 349.661 303.802 349.31 303.485C348.958 303.163 348.489 303.002 347.903 303.002C347.435 303.002 346.983 303.09 346.55 303.266C346.116 303.441 345.709 303.711 345.328 304.074L344.484 303.204C344.988 302.718 345.524 302.36 346.093 302.132C346.661 301.903 347.294 301.789 347.991 301.789C349.081 301.789 349.901 302.07 350.452 302.633C351.003 303.189 351.278 304.027 351.278 305.146V311ZM349.837 307.344V306.447L347.666 306.746C347.004 306.84 346.506 307.007 346.172 307.247C345.838 307.487 345.671 307.865 345.671 308.381C345.671 308.92 345.826 309.333 346.137 309.62C346.453 309.901 346.837 310.042 347.288 310.042C348.067 310.042 348.686 309.787 349.143 309.277C349.605 308.768 349.837 308.123 349.837 307.344ZM363.293 310.895C363.047 310.994 362.804 311.067 362.563 311.114C362.329 311.167 362.062 311.193 361.764 311.193C361.049 311.193 360.486 310.985 360.076 310.569C359.672 310.147 359.47 309.526 359.47 308.706V303.23H357.923V302H359.47V299.803L360.911 299.337V302H363.179V303.23H360.911V308.539C360.911 309.055 361.002 309.427 361.184 309.655C361.371 309.884 361.649 309.998 362.019 309.998C362.194 309.998 362.364 309.978 362.528 309.937C362.692 309.896 362.83 309.849 362.941 309.796L363.293 310.895ZM369.542 303.23C369.431 303.195 369.331 303.172 369.243 303.16C369.155 303.143 369.044 303.134 368.909 303.134C368.177 303.134 367.6 303.447 367.178 304.074C366.756 304.695 366.545 305.475 366.545 306.412V311H365.104V302H366.545V303.784H366.58C366.785 303.151 367.099 302.671 367.521 302.343C367.942 302.009 368.429 301.842 368.979 301.842C369.161 301.842 369.313 301.851 369.437 301.868C369.565 301.886 369.68 301.912 369.779 301.947L369.542 303.23ZM377.733 311H376.292V309.594H376.257C375.946 310.133 375.562 310.537 375.105 310.807C374.654 311.076 374.127 311.211 373.523 311.211C372.68 311.211 371.997 310.965 371.476 310.473C370.954 309.98 370.693 309.327 370.693 308.513C370.693 307.745 370.957 307.109 371.484 306.605C372.012 306.102 372.759 305.779 373.726 305.639L376.292 305.296V305.094C376.292 304.338 376.116 303.802 375.765 303.485C375.413 303.163 374.944 303.002 374.358 303.002C373.89 303.002 373.438 303.09 373.005 303.266C372.571 303.441 372.164 303.711 371.783 304.074L370.939 303.204C371.443 302.718 371.979 302.36 372.548 302.132C373.116 301.903 373.749 301.789 374.446 301.789C375.536 301.789 376.356 302.07 376.907 302.633C377.458 303.189 377.733 304.027 377.733 305.146V311ZM376.292 307.344V306.447L374.121 306.746C373.459 306.84 372.961 307.007 372.627 307.247C372.293 307.487 372.126 307.865 372.126 308.381C372.126 308.92 372.281 309.333 372.592 309.62C372.908 309.901 373.292 310.042 373.743 310.042C374.522 310.042 375.141 309.787 375.598 309.277C376.061 308.768 376.292 308.123 376.292 307.344ZM386.848 310.464C386.432 310.722 386.016 310.909 385.6 311.026C385.184 311.149 384.729 311.211 384.237 311.211C382.972 311.211 381.932 310.818 381.117 310.033C380.309 309.248 379.904 308.135 379.904 306.693C379.904 305.229 380.312 304.045 381.126 303.143C381.946 302.24 383.071 301.789 384.501 301.789C384.964 301.789 385.403 301.845 385.819 301.956C386.241 302.067 386.666 302.249 387.094 302.501L386.487 303.556C386.153 303.368 385.825 303.23 385.503 303.143C385.181 303.055 384.829 303.011 384.448 303.011C383.458 303.011 382.699 303.342 382.172 304.004C381.645 304.666 381.381 305.507 381.381 306.526C381.381 307.651 381.656 308.51 382.207 309.102C382.764 309.693 383.481 309.989 384.36 309.989C384.647 309.989 384.946 309.945 385.257 309.857C385.573 309.764 385.89 309.62 386.206 309.427L386.848 310.464ZM396.305 311H394.283L390.311 306.676H390.275V311H388.834V297.676H390.275V306.122H390.311L394.09 302H395.979L391.805 306.342L396.305 311ZM398.273 311.193C397.992 311.193 397.752 311.097 397.553 310.903C397.354 310.704 397.254 310.467 397.254 310.191C397.254 309.922 397.354 309.688 397.553 309.488C397.752 309.289 397.992 309.189 398.273 309.189C398.555 309.189 398.795 309.289 398.994 309.488C399.193 309.688 399.293 309.922 399.293 310.191C399.293 310.467 399.193 310.704 398.994 310.903C398.795 311.097 398.555 311.193 398.273 311.193Z" fill="black" fill-opacity="0.8956"/>
<line x1="96" y1="392.5" x2="1296" y2="392.5" stroke="black" stroke-opacity="0.0803"/>
<path d="M114.662 501.652C113.997 503.02 112.98 504.141 111.613 505.016C110.255 505.891 108.615 506.328 106.691 506.328C103.793 506.328 101.455 505.453 99.6777 503.703C97.9095 501.953 97.0254 499.583 97.0254 496.594C97.0254 493.431 97.9141 490.888 99.6914 488.965C101.478 487.033 103.779 486.066 106.596 486.066C108.51 486.066 110.132 486.499 111.463 487.365C112.803 488.231 113.81 489.439 114.484 490.988L111.627 492.109C111.117 491.052 110.447 490.268 109.617 489.758C108.797 489.238 107.803 488.979 106.637 488.979C104.832 488.979 103.346 489.667 102.18 491.043C101.022 492.41 100.443 494.188 100.443 496.375C100.443 498.535 101.018 500.244 102.166 501.502C103.324 502.76 104.868 503.389 106.801 503.389C108.013 503.389 109.038 503.12 109.877 502.582C110.715 502.035 111.372 501.279 111.846 500.312L114.662 501.652ZM124.109 506.328C121.895 506.328 120.135 505.676 118.832 504.373C117.529 503.07 116.877 501.315 116.877 499.109C116.886 496.876 117.579 495.081 118.955 493.723C120.331 492.355 122.118 491.672 124.314 491.672C126.52 491.672 128.261 492.342 129.537 493.682C130.813 495.021 131.451 496.753 131.451 498.877C131.451 501.046 130.777 502.833 129.428 504.236C128.088 505.631 126.315 506.328 124.109 506.328ZM124.232 503.744C125.49 503.744 126.465 503.316 127.158 502.459C127.851 501.593 128.197 500.426 128.197 498.959C128.197 497.546 127.846 496.411 127.145 495.555C126.452 494.689 125.481 494.256 124.232 494.256C122.984 494.256 121.986 494.702 121.238 495.596C120.491 496.48 120.117 497.628 120.117 499.041C120.117 500.508 120.486 501.661 121.225 502.5C121.963 503.329 122.965 503.744 124.232 503.744ZM137.645 504.537H137.59V512.439H134.404V492H137.59V493.996H137.645C138.201 493.221 138.875 492.643 139.668 492.26C140.47 491.868 141.368 491.672 142.361 491.672C144.221 491.672 145.67 492.287 146.709 493.518C147.748 494.748 148.268 496.462 148.268 498.658C148.268 500.955 147.684 502.81 146.518 504.223C145.36 505.626 143.811 506.328 141.869 506.328C140.967 506.328 140.16 506.178 139.449 505.877C138.747 505.576 138.146 505.13 137.645 504.537ZM137.549 498.398V500.121C137.549 501.151 137.891 502.012 138.574 502.705C139.267 503.398 140.137 503.744 141.186 503.744C142.37 503.744 143.3 503.293 143.975 502.391C144.658 501.488 145 500.271 145 498.74C145 497.255 144.686 496.138 144.057 495.391C143.437 494.634 142.58 494.256 141.486 494.256C140.329 494.256 139.381 494.643 138.643 495.418C137.913 496.193 137.549 497.186 137.549 498.398ZM163.949 492L157.441 508.789C156.958 510.038 156.307 510.981 155.486 511.619C154.675 512.266 153.686 512.59 152.52 512.59C151.954 512.59 151.421 512.526 150.92 512.398C150.428 512.28 149.958 512.089 149.512 511.824L150.893 509.582C151.175 509.746 151.43 509.86 151.658 509.924C151.886 509.997 152.123 510.033 152.369 510.033C152.798 510.033 153.162 509.924 153.463 509.705C153.773 509.495 154.051 509.108 154.297 508.543L155.322 506.164L149.826 492H153.299L156.512 501.283C156.612 501.566 156.689 501.816 156.744 502.035C156.799 502.254 156.863 502.523 156.936 502.842H157.004C157.068 502.523 157.132 502.258 157.195 502.049C157.268 501.839 157.35 501.593 157.441 501.311L160.682 492H163.949ZM193.604 506H190.432V497.934C190.432 496.667 190.213 495.737 189.775 495.145C189.347 494.552 188.654 494.256 187.697 494.256C186.85 494.256 186.139 494.63 185.564 495.377C184.999 496.115 184.717 497.018 184.717 498.084V506H181.545V497.797C181.545 496.621 181.317 495.737 180.861 495.145C180.406 494.552 179.717 494.256 178.797 494.256C177.922 494.256 177.211 494.611 176.664 495.322C176.117 496.024 175.844 496.954 175.844 498.111V506H172.658V492H175.844V493.887H175.898C176.372 493.185 176.988 492.643 177.744 492.26C178.51 491.868 179.348 491.672 180.26 491.672C181.226 491.672 182.055 491.9 182.748 492.355C183.441 492.802 183.933 493.395 184.225 494.133C184.79 493.303 185.469 492.688 186.262 492.287C187.064 491.877 187.98 491.672 189.01 491.672C190.468 491.672 191.598 492.146 192.4 493.094C193.202 494.042 193.604 495.454 193.604 497.332V506ZM209.189 499.779H199.523C199.551 501.128 199.915 502.145 200.617 502.828C201.328 503.503 202.199 503.84 203.229 503.84C203.958 503.84 204.605 503.671 205.17 503.334C205.735 502.988 206.214 502.477 206.605 501.803L209.053 503.129C208.415 504.15 207.599 504.938 206.605 505.494C205.621 506.05 204.459 506.328 203.119 506.328C201.059 506.328 199.41 505.708 198.17 504.469C196.93 503.229 196.311 501.447 196.311 499.123C196.311 496.908 196.944 495.113 198.211 493.736C199.487 492.36 201.082 491.672 202.996 491.672C204.965 491.672 206.487 492.26 207.562 493.436C208.647 494.611 209.189 496.316 209.189 498.549V499.779ZM206.113 497.51C206.113 496.416 205.84 495.568 205.293 494.967C204.746 494.365 203.999 494.064 203.051 494.064C202.057 494.064 201.251 494.397 200.631 495.062C200.011 495.719 199.637 496.535 199.51 497.51H206.113Z" fill="black" fill-opacity="0.8956"/>
<g clip-path="url(#clip1_60_308)">
<g clip-path="url(#clip2_60_308)">
<rect width="1200" height="166" transform="translate(96 544)" fill="#FAFAFA"/>
</g>
<g clip-path="url(#clip3_60_308)">
<g filter="url(#filter0_d_60_308)">
<rect x="616" y="621" width="163" height="3" fill="black" fill-opacity="0.07" shape-rendering="crispEdges"/>
</g>
<path d="M620.5 634V638M633.5 634V637M646.5 634V637M659.5 634V637M672.5 634V637M684.5 634V637M697.5 634V637M710.5 634V637M723.5 634V637M736.5 634V637M749.5 634V637M761.5 634V637M774.5 634V638" stroke="black" stroke-opacity="0.2"/>
<g filter="url(#filter1_iiii_60_308)">
<path d="M707 618C707 617.448 707.448 617 708 617H713C713.552 617 714 617.448 714 618V626.625L710.5 630L707 626.625V618Z" fill="url(#paint0_linear_60_308)"/>
</g>
<path d="M713 616.5C713.828 616.5 714.5 617.172 714.5 618V626.838L714.347 626.985L710.847 630.36L710.5 630.694L710.153 630.36L706.653 626.985L706.5 626.838V618C706.5 617.172 707.172 616.5 708 616.5H713Z" stroke="url(#paint1_linear_60_308)" stroke-opacity="0.4"/>
</g>
</g>
<rect x="95.5" y="543.5" width="1201" height="167" rx="8.5" stroke="black" stroke-opacity="0.0578"/>
</g>
<defs>
<filter id="filter0_d_60_308" x="615.5" y="620.5" width="163.5" height="3.5" filterUnits="userSpaceOnUse" color-interpolation-filters="sRGB">
<feFlood flood-opacity="0" result="BackgroundImageFix"/>
<feColorMatrix in="SourceAlpha" type="matrix" values="0 0 0 0 0 0 0 0 0 0 0 0 0 0 0 0 0 0 127 0" result="hardAlpha"/>
<feOffset dx="-0.5" dy="-0.5"/>
<feComposite in2="hardAlpha" operator="out"/>
<feColorMatrix type="matrix" values="0 0 0 0 0 0 0 0 0 0 0 0 0 0 0 0 0 0 0.45 0"/>
<feBlend mode="normal" in2="BackgroundImageFix" result="effect1_dropShadow_60_308"/>
<feBlend mode="normal" in="SourceGraphic" in2="effect1_dropShadow_60_308" result="shape"/>
</filter>
<filter id="filter1_iiii_60_308" x="706" y="616" width="9" height="15.3892" filterUnits="userSpaceOnUse" color-interpolation-filters="sRGB">
<feFlood flood-opacity="0" result="BackgroundImageFix"/>
<feBlend mode="normal" in="SourceGraphic" in2="BackgroundImageFix" result="shape"/>
<feColorMatrix in="SourceAlpha" type="matrix" values="0 0 0 0 0 0 0 0 0 0 0 0 0 0 0 0 0 0 127 0" result="hardAlpha"/>
<feOffset dy="1.5"/>
<feComposite in2="hardAlpha" operator="arithmetic" k2="-1" k3="1"/>
<feColorMatrix type="matrix" values="0 0 0 0 1 0 0 0 0 1 0 0 0 0 1 0 0 0 1 0"/>
<feBlend mode="normal" in2="shape" result="effect1_innerShadow_60_308"/>
<feColorMatrix in="SourceAlpha" type="matrix" values="0 0 0 0 0 0 0 0 0 0 0 0 0 0 0 0 0 0 127 0" result="hardAlpha"/>
<feOffset dy="-2.5"/>
<feComposite in2="hardAlpha" operator="arithmetic" k2="-1" k3="1"/>
<feColorMatrix type="matrix" values="0 0 0 0 1 0 0 0 0 1 0 0 0 0 1 0 0 0 0.55 0"/>
<feBlend mode="normal" in2="effect1_innerShadow_60_308" result="effect2_innerShadow_60_308"/>
<feColorMatrix in="SourceAlpha" type="matrix" values="0 0 0 0 0 0 0 0 0 0 0 0 0 0 0 0 0 0 127 0" result="hardAlpha"/>
<feOffset dx="1.5"/>
<feComposite in2="hardAlpha" operator="arithmetic" k2="-1" k3="1"/>
<feColorMatrix type="matrix" values="0 0 0 0 0.921569 0 0 0 0 0.921569 0 0 0 0 0.921569 0 0 0 1 0"/>
<feBlend mode="normal" in2="effect2_innerShadow_60_308" result="effect3_innerShadow_60_308"/>
<feColorMatrix in="SourceAlpha" type="matrix" values="0 0 0 0 0 0 0 0 0 0 0 0 0 0 0 0 0 0 127 0" result="hardAlpha"/>
<feOffset dx="-1.5"/>
<feComposite in2="hardAlpha" operator="arithmetic" k2="-1" k3="1"/>
<feColorMatrix type="matrix" values="0 0 0 0 0.929412 0 0 0 0 0.92549 0 0 0 0 0.92549 0 0 0 1 0"/>
<feBlend mode="normal" in2="effect3_innerShadow_60_308" result="effect4_innerShadow_60_308"/>
</filter>
<linearGradient id="paint0_linear_60_308" x1="710.5" y1="617" x2="710.5" y2="631" gradientUnits="userSpaceOnUse">
<stop stop-color="white"/>
<stop offset="0.762017" stop-color="#D3D2D2"/>
</linearGradient>
<linearGradient id="paint1_linear_60_308" x1="710.5" y1="617" x2="710.5" y2="631" gradientUnits="userSpaceOnUse">
<stop offset="0.665356"/>
<stop offset="0.670189" stop-opacity="0.254899"/>
<stop offset="1" stop-opacity="0.63"/>
</linearGradient>
<clipPath id="clip0_60_308">
<rect width="1392" height="798" fill="white"/>
</clipPath>
<clipPath id="clip1_60_308">
<rect x="96" y="544" width="1200" height="166" rx="8" fill="white"/>
</clipPath>
<clipPath id="clip2_60_308">
<rect width="1200" height="166" fill="white" transform="translate(96 544)"/>
</clipPath>
<clipPath id="clip3_60_308">
<rect width="159" height="22" fill="white" transform="translate(616 616)"/>
</clipPath>
</defs>
</svg>
